<?xml version="1.0" encoding="UTF-8"?>
<svg width="6px" height="11px" viewBox="0 0 6 11" version="1.1" xmlns="http://www.w3.org/2000/svg" xmlns:xlink="http://www.w3.org/1999/xlink">
    <title>Path</title>
    <g id="Page-1" stroke="none" stroke-width="1" fill="none" fill-rule="evenodd">
        <g id="Ipad---Customer-List" transform="translate(-1140.000000, -582.000000)" fill="#99979B">
            <g id="Group-11" transform="translate(789.000000, 213.000000)">
                <path d="M349.714286,377.714286 C349.319762,377.714286 349,377.394286 349,377 C349,376.808095 349.075714,376.634286 349.19881,376.505714 L349.196905,376.504048 L353.482619,372.218333 L353.482857,372.218571 C353.612857,372.08381 353.795,372 353.996905,372 C353.997381,372 353.997857,372 353.998571,372 C353.999048,372 353.999524,372 354,372 C354.201905,372 354.384048,372.08381 354.514048,372.218571 L354.514286,372.218333 L358.8,376.504048 L358.799762,376.504286 C358.92381,376.632857 359,376.807381 359,377 C359,377.394286 358.680238,377.714286 358.285714,377.714286 C358.093095,377.714286 357.918571,377.637857 357.79,377.514048 L357.789762,377.514286 L353.998571,373.722857 L350.255952,377.465238 C350.125,377.617619 349.930952,377.714286 349.714286,377.714286" id="Path" transform="translate(354.000000, 374.857143) rotate(-270.000000) translate(-354.000000, -374.857143) "></path>
            </g>
        </g>
    </g>
</svg>