<?xml version="1.0" encoding="UTF-8"?>
<svg width="32px" height="32px" viewBox="0 0 32 32" version="1.1" xmlns="http://www.w3.org/2000/svg" xmlns:xlink="http://www.w3.org/1999/xlink">
    <title>noun_Pie Chart_1544534</title>
    <g id="Page-1" stroke="none" stroke-width="1" fill="none" fill-rule="evenodd">
        <g id="Ipad---Home" transform="translate(-67.000000, -581.000000)" fill="#1C0000" fill-rule="nonzero" stroke="#1C0000" stroke-width="0.25">
            <g id="noun_Pie-Chart_1544534" transform="translate(68.000000, 582.000000)">
                <path d="M15.012375,0.002625 C15.007875,0.002625 15.0045,0 15,0 C14.9955,0 14.99175,0.00225 14.987625,0.002625 C6.72225,0.009375 0,6.734625 0,15.001125 C0,23.27175 6.729,30 15,30 C19.12275,30 22.861875,28.327875 25.57575,25.62675 C25.58625,25.6185 25.599,25.61475 25.60875,25.605 C25.6185,25.59525 25.622625,25.582125 25.63125,25.57125 C28.329375,22.857375 30,19.120875 30,15.001125 C30,6.734625 23.27775,0.009375 15.012375,0.002625 Z M0.75,15.001125 C0.75,7.270125 6.940875,0.961875 14.625,0.761625 L14.625,14.998875 C14.625,15.098625 14.664375,15.193875 14.734875,15.264 L24.802125,25.328625 C22.24575,27.756 18.795,29.25 15,29.25 C7.142625,29.25 0.75,22.85775 0.75,15.001125 Z M25.332375,24.798 L15.375,14.843625 L15.375,0.761625 C23.059125,0.961875 29.25,7.270125 29.25,15.001125 C29.25,18.793875 27.7575,22.242375 25.332375,24.798 Z" id="Shape"></path>
            </g>
        </g>
    </g>
</svg>