<?xml version="1.0" encoding="UTF-8"?>
<svg width="32px" height="32px" viewBox="0 0 32 32" version="1.1" xmlns="http://www.w3.org/2000/svg" xmlns:xlink="http://www.w3.org/1999/xlink">
    <title>Combined Shape</title>
    <g id="Page-1" stroke="none" stroke-width="1" fill="none" fill-rule="evenodd">
        <g id="Ipad---Home" transform="translate(-804.000000, -743.000000)" fill="#000000" fill-rule="nonzero" stroke="#000000" stroke-width="0.25">
            <path d="M823.155026,744 L823.233104,744.008297 C825.041769,744.396431 826.751056,745.105571 828.31334,746.115468 C828.402592,746.173595 828.462969,746.266597 828.479844,746.371224 C828.496719,746.476226 828.468219,746.583479 828.401092,746.666355 C827.500698,747.780505 827.586949,749.385165 828.600972,750.399187 C829.614994,751.413209 831.220029,751.498336 832.333803,750.599066 C832.417055,750.53194 832.523932,750.502689 832.628935,750.520315 C832.733937,750.53719 832.826939,750.597566 832.88469,750.686818 C833.894587,752.249102 834.603728,753.95839 834.991861,755.767054 C835.014362,755.870932 834.991486,755.980059 834.92886,756.065936 C834.866609,756.151813 834.770231,756.207689 834.664479,756.218564 C833.239073,756.368567 832.163549,757.564469 832.163549,759 C832.163549,760.435531 833.238698,761.631433 834.664479,761.781436 C834.770231,761.792311 834.866609,761.848187 834.92886,761.934064 C834.991486,762.020316 835.014362,762.129068 834.991861,762.232946 C834.603728,764.04161 833.894587,765.750898 832.88469,767.313182 C832.826564,767.402434 832.733562,767.46281 832.628935,767.479685 C832.523932,767.497311 832.417055,767.468435 832.333803,767.400934 C831.220404,766.500914 829.615369,766.586791 828.600972,767.600813 C827.586949,768.614835 827.501073,770.219495 828.401092,771.333645 C828.468219,771.416521 828.496719,771.523774 828.479844,771.628776 C828.462969,771.733778 828.402592,771.82678 828.31334,771.884532 C826.751056,772.894429 825.041769,773.603569 823.233104,773.991703 C823.207229,773.996953 823.180603,774 823.154352,774 C823.075976,774 822.998724,773.975577 822.934223,773.928701 C822.848346,773.86645 822.79247,773.770073 822.781594,773.664321 C822.631591,772.238539 821.43569,771.163391 820.000159,771.163391 C818.564627,771.163391 817.368726,772.238539 817.218723,773.664321 C817.207847,773.770073 817.151971,773.86645 817.066094,773.928701 C816.979842,773.991328 816.87034,774.013828 816.767213,773.991703 C814.958548,773.603569 813.249261,772.894429 811.686977,771.884532 C811.597725,771.826405 811.537348,771.733403 811.520473,771.628776 C811.503598,771.523774 811.532098,771.416521 811.599225,771.333645 C812.49962,770.219495 812.413368,768.614835 811.399345,767.600813 C810.384573,766.586416 808.779913,766.500914 807.666514,767.400934 C807.583637,767.468435 807.477135,767.497311 807.371382,767.479685 C807.26638,767.46281 807.173378,767.402434 807.115627,767.313182 C806.10573,765.750898 805.396589,764.04161 805.008456,762.232946 C804.985955,762.129068 805.008831,762.019941 805.071457,761.934064 C805.133708,761.848187 805.230086,761.792311 805.335838,761.781436 C806.761619,761.631433 807.836768,760.435531 807.836768,759 C807.836768,757.564469 806.761619,756.368567 805.335838,756.218564 C805.230086,756.207689 805.133708,756.151813 805.071457,756.065936 C805.008831,755.979684 804.985955,755.870932 805.008456,755.767054 C805.396589,753.95839 806.10573,752.249102 807.115627,750.686818 C807.173753,750.597566 807.266755,750.53719 807.371382,750.520315 C807.477135,750.502689 807.583637,750.53194 807.666514,750.599066 C808.779913,751.499086 810.384948,751.413209 811.399345,750.399187 C812.413368,749.385165 812.499245,747.780505 811.599225,746.666355 C811.532098,746.583479 811.503598,746.476226 811.520473,746.371224 C811.537348,746.266222 811.597725,746.17322 811.686977,746.115468 C813.249261,745.105571 814.958548,744.396431 816.767213,744.008297 C816.870715,743.986547 816.980217,744.008672 817.066094,744.071299 C817.151971,744.13355 817.207847,744.229927 817.218723,744.335679 C817.368726,745.761461 818.564627,746.836609 820.000159,746.836609 C821.43569,746.836609 822.631591,745.761461 822.781594,744.335679 C822.79247,744.229927 822.848346,744.13355 822.934223,744.071299 C823.020475,744.008672 823.129977,743.986172 823.233104,744.008297 Z M823.459234,744.828815 C823.098476,746.4271 821.678695,747.58625 820.000159,747.58625 C818.321622,747.58625 816.901841,746.4271 816.541083,744.828815 C815.089426,745.182073 813.708646,745.75471 812.426493,746.536227 C813.299887,747.921133 813.115008,749.743298 811.929232,750.929074 C810.744206,752.114474 808.920916,752.300479 807.536386,751.426334 C806.754869,752.708487 806.181856,754.089268 805.828974,755.540924 C807.427259,755.901682 808.586409,757.321463 808.586409,759 C808.586409,760.678537 807.427259,762.098318 805.828974,762.459076 C806.182231,763.910732 806.754869,765.291513 807.536386,766.573666 C808.920541,765.700647 810.743456,765.885151 811.929232,767.070926 C813.115008,768.256702 813.299887,770.079242 812.426493,771.463773 C813.708646,772.24529 815.089426,772.818302 816.541083,773.171185 C816.901841,771.5729 818.321622,770.41375 820.000159,770.41375 C821.678695,770.41375 823.098476,771.5729 823.459234,773.171185 C824.910891,772.817927 826.291671,772.24529 827.573824,771.463773 C826.70043,770.078867 826.885309,768.256702 828.071085,767.070926 C829.256111,765.885526 831.079026,765.699896 832.463931,766.573666 C833.245448,765.291513 833.818461,763.910732 834.171343,762.459076 C832.573058,762.098318 831.413908,760.678537 831.413908,759 C831.413908,757.321463 832.572683,755.901682 834.171343,755.540924 C833.818086,754.089268 833.245448,752.708487 832.463931,751.426334 C831.079776,752.299353 829.256861,752.114849 828.071085,750.929074 C826.885309,749.743298 826.70043,747.920758 827.573824,746.536227 C826.291671,745.75471 824.910891,745.181698 823.459234,744.828815 Z M819.952157,753.582257 C822.939473,753.582257 825.369526,756.012685 825.369526,759 C825.369526,761.987315 822.939473,764.417368 819.952157,764.417368 C816.964842,764.417368 814.534789,761.987315 814.534789,759 C814.534789,756.012685 816.964842,753.582257 819.952157,753.582257 Z M819.952157,754.332273 C817.378476,754.332273 815.284805,756.426319 815.284805,759 C815.284805,761.573681 817.378476,763.667352 819.952157,763.667352 C822.525839,763.667352 824.61951,761.573681 824.61951,759 C824.61951,756.426319 822.525839,754.332273 819.952157,754.332273 Z" id="Combined-Shape"></path>
        </g>
    </g>
</svg>