<?xml version="1.0" encoding="UTF-8"?>
<svg width="14px" height="14px" viewBox="0 0 14 14" version="1.1" xmlns="http://www.w3.org/2000/svg" xmlns:xlink="http://www.w3.org/1999/xlink">
    <title>Fill 1</title>
    <g id="Page-1" stroke="none" stroke-width="1" fill="none" fill-rule="evenodd">
        <g id="Ipad---Signature" transform="translate(-1133.000000, -305.000000)" fill="#000000">
            <path d="M1142.84377,312.656206 L1140.65627,312.656206 L1140.65627,314.843706 C1140.65627,315.206175 1140.36249,315.499956 1140.00002,315.499956 C1139.63755,315.499956 1139.34377,315.206175 1139.34377,314.843706 L1139.34377,312.656206 L1137.15627,312.656206 C1136.7938,312.656206 1136.50002,312.362425 1136.50002,311.999956 C1136.50002,311.637706 1136.7938,311.343706 1137.15627,311.343706 L1139.34377,311.343706 L1139.34377,309.156206 C1139.34377,308.793956 1139.63755,308.499956 1140.00002,308.499956 C1140.36249,308.499956 1140.65627,308.793956 1140.65627,309.156206 L1140.65627,311.343706 L1142.84377,311.343706 C1143.20624,311.343706 1143.50002,311.637706 1143.50002,311.999956 C1143.50002,312.362425 1143.20624,312.656206 1142.84377,312.656206 M1140.00002,304.999956 C1136.13405,304.999956 1133.00002,308.133987 1133.00002,311.999956 C1133.00002,315.865925 1136.13405,318.999956 1140.00002,318.999956 C1143.86599,318.999956 1147.00002,315.865925 1147.00002,311.999956 C1147.00002,308.133987 1143.86599,304.999956 1140.00002,304.999956" id="Fill-1" transform="translate(1140.000022, 311.999956) rotate(-315.000000) translate(-1140.000022, -311.999956) "></path>
        </g>
    </g>
</svg>