<?xml version="1.0" encoding="UTF-8"?>
<svg width="16px" height="30px" viewBox="0 0 16 30" version="1.1" xmlns="http://www.w3.org/2000/svg" xmlns:xlink="http://www.w3.org/1999/xlink">
    <title>noun_User_2814694</title>
    <g id="Page-1" stroke="none" stroke-width="1" fill="none" fill-rule="evenodd">
        <g id="Ipad---Home" transform="translate(-75.000000, -663.000000)" fill="#1C0000" fill-rule="nonzero" stroke="#1C0000" stroke-width="0.25">
            <g id="noun_User_2814694" transform="translate(75.000000, 663.000000)">
                <path d="M7.8,8.89306638 C10.1425781,8.89306638 12.0486328,6.98730468 12.0486328,4.64472654 C12.0486328,2.3021484 10.1425781,0.39609372 7.8,0.39609372 C5.45742186,0.39609372 3.55136718,2.3021484 3.55136718,4.64472654 C3.55136718,6.98730468 5.45742186,8.89306638 7.8,8.89306638 Z M7.8,1.59609372 C9.48105468,1.59609372 10.8486328,2.96367186 10.8486328,4.64472654 C10.8486328,6.32548824 9.48105468,7.69306638 7.8,7.69306638 C6.11894532,7.69306638 4.75136718,6.32548824 4.75136718,4.64472654 C4.75136718,2.96367186 6.11894532,1.59609372 7.8,1.59609372 Z" id="Shape"></path>
                <path d="M2.61328128,22.3549805 L2.61328128,29.024707 C2.61328128,29.3560547 2.88164064,29.624707 3.21328128,29.624707 L12.3867188,29.624707 C12.7183594,29.624707 12.9867188,29.3560547 12.9867188,29.024707 L12.9867188,22.3549805 C14.1638672,22.0822266 15.0439453,21.0246094 15.0439453,19.7657227 L15.0439453,14.8371094 C15.0439453,12.54375 13.1783203,10.678125 10.8855469,10.678125 L4.71445314,10.678125 C2.42167968,10.678125 0.55605468,12.54375 0.55605468,14.8371094 L0.55605468,19.7657227 C0.55605468,21.0246094 1.43613282,22.0822265 2.61328128,22.3549805 Z M1.75605468,14.8371094 C1.75605468,13.2055664 3.08320314,11.878125 4.71445314,11.878125 L10.8855469,11.878125 C12.5167969,11.878125 13.8439453,13.2055664 13.8439453,14.8371094 L13.8439453,19.7657227 C13.8439453,20.569336 13.190039,21.2232422 12.3867188,21.2232422 C12.0550781,21.2232422 11.7867188,21.4918945 11.7867188,21.8232422 L11.7867188,28.424707 L3.81328128,28.424707 L3.81328128,21.8232422 C3.81328128,21.4918945 3.54492192,21.2232422 3.21328128,21.2232422 C2.40996096,21.2232422 1.75605468,20.5693359 1.75605468,19.7657227 L1.75605468,14.8371094 L1.75605468,14.8371094 Z" id="Shape"></path>
            </g>
        </g>
    </g>
</svg>