<?xml version="1.0" encoding="UTF-8"?>
<svg width="14px" height="17px" viewBox="0 0 14 17" version="1.1" xmlns="http://www.w3.org/2000/svg" xmlns:xlink="http://www.w3.org/1999/xlink">
    <title>Group 3</title>
    <defs>
        <polygon id="path-1" points="0 -2.91666667e-05 13.9999708 -2.91666667e-05 13.9999708 16.9166083 0 16.9166083"></polygon>
    </defs>
    <g id="Page-1" stroke="none" stroke-width="1" fill="none" fill-rule="evenodd">
        <g id="Ipad---Products" transform="translate(-1089.000000, -278.000000)">
            <g id="Group-3" transform="translate(1089.000000, 278.000000)">
                <mask id="mask-2" fill="white">
                    <use xlink:href="#path-1"></use>
                </mask>
                <g id="Clip-2"></g>
                <path d="M11.3749708,6.99994167 C11.3749708,6.51694167 10.9832625,6.12494167 10.4999708,6.12494167 C10.0169708,6.12494167 9.62497083,6.51694167 9.62497083,6.99994167 L9.62497083,14.2916083 C9.62497083,14.7749 10.0169708,15.1666083 10.4999708,15.1666083 C10.9832625,15.1666083 11.3749708,14.7749 11.3749708,14.2916083 L11.3749708,6.99994167 Z M7.87497083,6.99994167 C7.87497083,6.51694167 7.4832625,6.12494167 6.99997083,6.12494167 C6.51667917,6.12494167 6.12497083,6.51694167 6.12497083,6.99994167 L6.12497083,14.2916083 C6.12497083,14.7749 6.51667917,15.1666083 6.99997083,15.1666083 C7.4832625,15.1666083 7.87497083,14.7749 7.87497083,14.2916083 L7.87497083,6.99994167 Z M4.37497083,6.99994167 C4.37497083,6.51694167 3.9832625,6.12494167 3.49997083,6.12494167 C3.01667917,6.12494167 2.62497083,6.51694167 2.62497083,6.99994167 L2.62497083,14.2916083 C2.62497083,14.7749 3.01667917,15.1666083 3.49997083,15.1666083 C3.9832625,15.1666083 4.37497083,14.7749 4.37497083,14.2916083 L4.37497083,6.99994167 Z M13.1249708,5.24994167 L13.1249708,6.99994167 L13.1249708,16.0416083 C13.1249708,16.5249 12.7332625,16.9166083 12.2499708,16.9166083 L1.74997083,16.9166083 C1.26667917,16.9166083 0.874970833,16.5249 0.874970833,16.0416083 L0.874970833,6.99994167 L0.874970833,5.24994167 L0.874970833,4.37494167 L13.1249708,4.37494167 L13.1249708,5.24994167 Z M-2.91666667e-05,2.62494167 C-2.91666667e-05,2.14194167 0.391679167,1.74994167 0.874970833,1.74994167 L5.24997083,1.74994167 L5.24997083,0.874941667 C5.24997083,0.39165 5.64167917,-5.83333333e-05 6.12497083,-5.83333333e-05 L7.87497083,-5.83333333e-05 C8.3582625,-5.83333333e-05 8.74997083,0.39165 8.74997083,0.874941667 L8.74997083,1.74994167 L13.1249708,1.74994167 C13.6082625,1.74994167 13.9999708,2.14194167 13.9999708,2.62494167 L13.9999708,3.49994167 L-2.91666667e-05,3.49994167 L-2.91666667e-05,2.62494167 Z" id="Fill-1" fill="#000000" mask="url(#mask-2)"></path>
            </g>
        </g>
    </g>
</svg>