<?xml version="1.0" encoding="UTF-8"?>
<svg width="30px" height="30px" viewBox="0 0 30 30" version="1.1" xmlns="http://www.w3.org/2000/svg" xmlns:xlink="http://www.w3.org/1999/xlink">
    <title>noun_Discount_1672552</title>
    <g id="Page-1" stroke="none" stroke-width="1" fill="none" fill-rule="evenodd">
        <g id="Ipad---Home" transform="translate(-435.000000, -744.000000)" fill="#000000" fill-rule="nonzero">
            <g id="noun_Discount_1672552" transform="translate(435.000000, 744.000000)">
                <path d="M0.471666667,15.4227778 L3.165,16.7716667 L1.02111111,18.8866667 C0.871111111,19.0344444 0.817777778,19.2538889 0.882777778,19.4538889 C0.947777778,19.6538889 1.12055556,19.8 1.32833333,19.8316667 L4.30611111,20.2827778 L2.92,22.9566667 C2.82277778,23.1433333 2.84,23.3683333 2.96388889,23.5388889 C3.08722222,23.7083333 3.29388889,23.7944444 3.50388889,23.7605556 L6.47611111,23.2688889 L5.98444444,26.2405556 C5.95,26.4477778 6.03611111,26.6572222 6.20555556,26.7805556 C6.375,26.9038889 6.60166667,26.9211111 6.78777778,26.8244444 L9.46166667,25.4388889 L9.91277778,28.4166667 C9.94388889,28.625 10.09,28.7972222 10.29,28.8622222 C10.4894444,28.9261111 10.7105556,28.8738889 10.8572222,28.7238889 L12.9727778,26.5794444 L14.3216667,29.2722222 C14.4161111,29.46 14.6083333,29.5788889 14.8188889,29.5788889 C15.0294444,29.5788889 15.2216667,29.46 15.3161111,29.2722222 L16.665,26.5794444 L18.78,28.7238889 C18.9277778,28.8744444 19.1488889,28.9261111 19.3472222,28.8622222 C19.5472222,28.7972222 19.6933333,28.625 19.725,28.4172222 L20.1761111,25.4388889 L22.8505556,26.8244444 C23.0366667,26.9216667 23.2627778,26.9044444 23.4327778,26.7805556 C23.6027778,26.6566667 23.6888889,26.4477778 23.6538889,26.2405556 L23.1622222,23.2688889 L26.1338889,23.7605556 C26.3427778,23.7938889 26.5505556,23.7088889 26.6738889,23.5388889 C26.7977778,23.3688889 26.815,23.1433333 26.7177778,22.9566667 L25.3322222,20.2827778 L28.31,19.8316667 C28.5183333,19.8 28.6905556,19.6538889 28.7555556,19.4538889 C28.8205556,19.2538889 28.7672222,19.0344444 28.6172222,18.8866667 L26.4727778,16.7716667 L29.1666667,15.4227778 C29.3544444,15.3288889 29.4733333,15.1361111 29.4733333,14.9261111 C29.4733333,14.7161111 29.3544444,14.5233333 29.1666667,14.4294444 L26.4727778,13.0805556 L28.6172222,10.965 C28.7672222,10.8172222 28.8205556,10.5977778 28.7555556,10.3977778 C28.6905556,10.1977778 28.5177778,10.0516667 28.31,10.02 L25.3322222,9.56944444 L26.7177778,6.895 C26.815,6.70833333 26.7977778,6.48277778 26.6738889,6.31277778 C26.5505556,6.14277778 26.3433333,6.05611111 26.1338889,6.09111111 L23.1622222,6.58277778 L23.6538889,3.61111111 C23.6883333,3.40388889 23.6022222,3.19444444 23.4327778,3.07111111 C23.2622222,2.94722222 23.0361111,2.93055556 22.8505556,3.02722222 L20.1761111,4.41333333 L19.725,1.435 C19.6933333,1.22722222 19.5477778,1.055 19.3472222,0.99 C19.1494444,0.925555556 18.9277778,0.978333333 18.78,1.12833333 L16.665,3.27277778 L15.3161111,0.579444444 C15.1272222,0.203333333 14.5111111,0.203333333 14.3222222,0.579444444 L12.9733333,3.27277778 L10.8577778,1.12833333 C10.7094444,0.978333333 10.49,0.925555556 10.2905556,0.99 C10.0911111,1.055 9.94444444,1.22722222 9.91333333,1.43555556 L9.46222222,4.41333333 L6.78833333,3.02722222 C6.60277778,2.93055556 6.37611111,2.94722222 6.20611111,3.07111111 C6.03611111,3.195 5.95,3.40388889 5.985,3.61111111 L6.47666667,6.58333333 L3.50444444,6.09111111 C3.29333333,6.05555556 3.08777778,6.14277778 2.96444444,6.31277778 C2.84055556,6.48277778 2.82333333,6.70833333 2.92055556,6.895 L4.30666667,9.56944444 L1.32888889,10.02 C1.12111111,10.0516667 0.948333333,10.1977778 0.883333333,10.3977778 C0.818333333,10.5977778 0.871666667,10.8172222 1.02166667,10.965 L3.16555556,13.0805556 L0.472222222,14.4294444 C0.284444444,14.5233333 0.165555556,14.7161111 0.165555556,14.9261111 C0.165555556,15.1361111 0.283888889,15.3288889 0.471666667,15.4227778 Z M4.35611111,13.7266667 C4.51611111,13.6461111 4.62777778,13.4938889 4.65555556,13.3166667 C4.68388889,13.14 4.62444444,12.96 4.49722222,12.8344444 L2.59,10.9533333 L5.23888889,10.5527778 C5.41611111,10.5261111 5.56944444,10.415 5.65055556,10.2555556 C5.73166667,10.0955556 5.73166667,9.90666667 5.64888889,9.74777778 L4.41611111,7.36944444 L7.05944444,7.80722222 C7.235,7.835 7.41555556,7.77833333 7.54277778,7.65166667 C7.67,7.525 7.72722222,7.345 7.69777778,7.16833333 L7.26055556,4.52555556 L9.63888889,5.75777778 C9.79777778,5.84 9.98666667,5.84111111 10.1466667,5.75944444 C10.3061111,5.67833333 10.4166667,5.52444444 10.4433333,5.34722222 L10.8444444,2.69888889 L12.7255556,4.60611111 C12.8516667,4.73333333 13.0316667,4.79277778 13.2077778,4.765 C13.3844444,4.73666667 13.5377778,4.62555556 13.6177778,4.465 L14.8172222,2.07 L16.0166667,4.465 C16.0972222,4.62555556 16.25,4.73666667 16.4266667,4.765 C16.6038889,4.79333333 16.7838889,4.73333333 16.9088889,4.60611111 L18.79,2.69888889 L19.1911111,5.34777778 C19.2177778,5.525 19.3283333,5.67833333 19.4877778,5.75944444 C19.6477778,5.84111111 19.8366667,5.84 19.9955556,5.75777778 L22.3738889,4.52555556 L21.9366667,7.16833333 C21.9072222,7.345 21.965,7.525 22.0916667,7.65166667 C22.2183333,7.77833333 22.3977778,7.83444444 22.575,7.80722222 L25.2177778,7.36944444 L23.9855556,9.74777778 C23.9033333,9.90666667 23.9027778,10.0955556 23.9838889,10.2555556 C24.065,10.415 24.2183333,10.5255556 24.3955556,10.5527778 L27.0438889,10.9533333 L25.1366667,12.8344444 C25.0094444,12.9605556 24.95,13.14 24.9783333,13.3166667 C25.0061111,13.4938889 25.1177778,13.6461111 25.2777778,13.7266667 L27.6733333,14.9261111 L25.2777778,16.1261111 C25.1177778,16.2066667 25.0061111,16.3588889 24.9783333,16.5361111 C24.95,16.7127778 25.0094444,16.8927778 25.1366667,17.0183333 L27.0438889,18.8994444 L24.3955556,19.3005556 C24.2183333,19.3272222 24.065,19.4383333 23.9838889,19.5977778 C23.9027778,19.7577778 23.9027778,19.9466667 23.9855556,20.1055556 L25.2177778,22.4838889 L22.575,22.0466667 C22.3983333,22.0183333 22.2177778,22.075 22.0916667,22.2022222 C21.9644444,22.3288889 21.9072222,22.5088889 21.9366667,22.6855556 L22.3738889,25.3283333 L19.9955556,24.0961111 C19.8366667,24.0138889 19.6477778,24.0127778 19.4877778,24.0944444 C19.3283333,24.1755556 19.2177778,24.3288889 19.1911111,24.5061111 L18.79,27.155 L16.9088889,25.2477778 C16.7833333,25.1205556 16.6038889,25.0611111 16.4266667,25.0888889 C16.25,25.1166667 16.0966667,25.2283333 16.0166667,25.3888889 L14.8172222,27.7838889 L13.6177778,25.3888889 C13.5372222,25.2283333 13.3844444,25.1172222 13.2077778,25.0888889 C13.1788889,25.0844444 13.15,25.0822222 13.1211111,25.0822222 C12.9733333,25.0822222 12.8311111,25.1411111 12.7255556,25.2477778 L10.8444444,27.155 L10.4433333,24.5066667 C10.4166667,24.3294444 10.3061111,24.1761111 10.1466667,24.0944444 C9.98666667,24.0127778 9.79777778,24.0138889 9.63888889,24.0961111 L7.26055556,25.3283333 L7.69777778,22.6855556 C7.72722222,22.5088889 7.66944444,22.3288889 7.54277778,22.2022222 C7.41666667,22.0755556 7.23833333,22.0177778 7.05944444,22.0466667 L4.41611111,22.4838889 L5.64888889,20.1055556 C5.73111111,19.9466667 5.73166667,19.7577778 5.65055556,19.5977778 C5.56944444,19.4383333 5.41611111,19.3277778 5.23888889,19.3005556 L2.59,18.8994444 L4.49722222,17.0183333 C4.62444444,16.8922222 4.68388889,16.7127778 4.65555556,16.5361111 C4.62777778,16.3588889 4.51611111,16.2066667 4.35611111,16.1261111 L1.96055556,14.9261111 L4.35611111,13.7266667 Z" id="Shape"></path>
                <path d="M10.9855556,20.2866667 C11.0433333,20.2911111 11.1011111,20.2933333 11.1583333,20.2933333 C12.3333333,20.2933333 13.3311111,19.3844444 13.4211111,18.1938889 C13.5161111,16.945 12.5766667,15.8522222 11.3277778,15.7577778 C10.0722222,15.665 8.98611111,16.6027778 8.89166667,17.8511111 C8.84555556,18.4561111 9.03833333,19.0427778 9.43388889,19.5027778 C9.82944444,19.9627778 10.3805556,20.2405556 10.9855556,20.2866667 Z M11.2444444,16.865 C11.8816667,16.9133333 12.3616667,17.4716667 12.3133333,18.1094444 C12.265,18.7472222 11.7055556,19.2244444 11.0694444,19.1788889 C10.76,19.1555556 10.4794444,19.0133333 10.2766667,18.7777778 C10.075,18.5427778 9.97666667,18.2433333 10,17.9344444 C10.0483333,17.2961111 10.6044444,16.8172222 11.2444444,16.865 Z" id="Shape"></path>
                <path d="M18.3072222,13.9944444 C18.365,13.9988889 18.4227778,14.0011111 18.48,14.0011111 C19.655,14.0011111 20.6533333,13.0922222 20.7433333,11.9016667 C20.7894444,11.2966667 20.5966667,10.71 20.2011111,10.25 C19.8055556,9.79 19.2544444,9.51111111 18.6494444,9.46555556 C18.0466667,9.41722222 17.4577778,9.61222222 16.9983333,10.0077778 C16.5383333,10.4033333 16.2594444,10.9538889 16.2138889,11.5588889 C16.1194444,12.8072222 17.0583333,13.9 18.3072222,13.9944444 Z M17.7227778,10.85 C17.9577778,10.6477778 18.2577778,10.5511111 18.5661111,10.5733333 C18.8755556,10.5966667 19.1561111,10.7388889 19.3588889,10.9738889 C19.5605556,11.2088889 19.6588889,11.5083333 19.6355556,11.8172222 C19.5872222,12.455 19.0305556,12.9305556 18.3911111,12.8866667 C18.0822222,12.8633333 17.8011111,12.7211111 17.5988889,12.4861111 C17.3972222,12.2511111 17.2988889,11.9516667 17.3222222,11.6427778 C17.3455556,11.3333333 17.4883333,11.0522222 17.7227778,10.85 Z" id="Shape"></path>
                <path d="M18.6038889,20.3855556 C18.7138889,20.5133333 18.8694444,20.5788889 19.0255556,20.5788889 C19.1538889,20.5788889 19.2827778,20.5344444 19.3872222,20.4444444 C19.62,20.2444444 19.6466667,19.8938889 19.4466667,19.6611111 L10.6872222,9.46722222 C10.4866667,9.23444444 10.1361111,9.20888889 9.90388889,9.40833333 C9.67111111,9.60833333 9.64444444,9.95888889 9.84444444,10.1916667 L18.6038889,20.3855556 Z" id="Path"></path>
            </g>
        </g>
    </g>
</svg>