<?xml version="1.0" encoding="UTF-8"?>
<svg width="31px" height="30px" viewBox="0 0 31 30" version="1.1" xmlns="http://www.w3.org/2000/svg" xmlns:xlink="http://www.w3.org/1999/xlink">
    <title>noun_merry christmas_2038494</title>
    <g id="Page-1" stroke="none" stroke-width="1" fill="none" fill-rule="evenodd">
        <g id="Ipad---Estimate---Discount-Picker" transform="translate(-805.000000, -428.000000)" fill="#000000" fill-rule="nonzero">
            <g id="noun_merry-christmas_2038494" transform="translate(805.000000, 428.000000)">
                <path d="M25.7956543,16.125 C25.9256592,16.125 26.0463257,16.1921997 26.1146241,16.3027954 L26.1146241,16.3027954 L28.5559693,20.2505493 C28.6273804,20.366272 28.6308595,20.5114746 28.5645752,20.6303101 C28.498291,20.7491455 28.3730469,20.8227539 28.2369995,20.8227539 L28.2369995,20.8227539 L28.0186921,20.8227539 L29.3936768,23.4746704 C29.4539185,23.5909424 29.4491578,23.7302857 29.3812256,23.8421631 C29.3131104,23.9540406 29.1917115,24.0223389 29.0607911,24.0223389 L29.0607911,24.0223389 L28.6275406,24.0223389 L30.1748047,27.090271 C30.2333985,27.206543 30.2275391,27.3447876 30.1592408,27.4557495 C30.0909424,27.5665283 29.9700928,27.6340942 29.8399048,27.6340942 L29.8399048,27.6340942 L26.1706543,27.6340942 L26.1706543,29.25 L30.6164551,29.25 C30.8235474,29.25 30.9914551,29.4179077 30.9914551,29.625 C30.9914551,29.8320923 30.8235474,30 30.6164551,30 L30.6164551,30 L1.36132816,30 C1.15423588,30 0.9863282,29.8320923 0.9863282,29.625 C0.9863282,29.4179077 1.15423591,29.25 1.3613282,29.25 L1.3613282,29.25 L5.82031258,29.25 L5.82031258,27.6340942 L2.15106208,27.6340942 C2.02087408,27.6340942 1.90002448,27.5665283 1.83172614,27.4557495 C1.7634278,27.3447876 1.75756843,27.2065429 1.81616218,27.090271 L1.81616218,27.090271 L3.36342628,24.0223389 L2.92999273,24.0223389 C2.79907231,24.0223389 2.67767338,23.9540405 2.60955815,23.8421631 C2.54162604,23.7302856 2.5368653,23.5909423 2.59710699,23.4746704 L2.59710699,23.4746704 L3.97209174,20.8227539 L3.75378425,20.8227539 C3.61773688,20.8227539 3.49249273,20.7491455 3.42620855,20.63031 C3.35992438,20.5114746 3.36340336,20.3660889 3.4348145,20.2505493 L3.4348145,20.2505493 L5.87634283,16.3027954 C6.0129395,16.081604 6.37768561,16.081604 6.51428229,16.3027954 L6.51428229,16.3027954 L8.95581061,20.2505493 C9.02722175,20.3660889 9.03070078,20.5114746 8.96441656,20.6303101 C8.89813235,20.7491455 8.77288824,20.8227539 8.63684086,20.8227539 L8.63684086,20.8227539 L8.41839605,20.8227539 L9.79351813,23.4746704 C9.85375985,23.5909424 9.84918219,23.7302857 9.78106696,23.8421631 C9.71313481,23.9540406 9.5915528,24.0223389 9.46063239,24.0223389 L9.46063239,24.0223389 L9.02719884,24.0223389 L10.5744629,27.090271 C10.6330567,27.206543 10.6271973,27.3447876 10.558899,27.4557495 C10.4906006,27.5665283 10.369751,27.6340942 10.239563,27.6340942 L10.239563,27.6340942 L6.57031254,27.6340942 L6.57031254,29.25 L15.6025391,29.25 L15.6025391,27.6340942 L11.9332886,27.6340942 C11.8031006,27.6340942 11.682251,27.5665284 11.6139527,27.4557495 C11.5456544,27.3447876 11.539795,27.206543 11.5983887,27.090271 L11.5983887,27.090271 L13.1456528,24.0223389 L12.7122193,24.0223389 C12.5812989,24.0223389 12.4597168,23.9540405 12.3917847,23.8421631 C12.3236695,23.7302856 12.3190919,23.5909424 12.3793336,23.4746704 L12.3793336,23.4746704 L13.7544556,20.8227539 L13.5360108,20.8227539 C13.3999634,20.8227539 13.2747193,20.7491455 13.2084351,20.6303101 C13.1421509,20.5114746 13.1456299,20.3660889 13.2170411,20.2505493 L13.2170411,20.2505493 L15.6585694,16.3027954 C15.7951661,16.081604 16.1599122,16.081604 16.2965089,16.3027954 L16.2965089,16.3027954 L18.7380372,20.2505493 C18.8094483,20.3660889 18.8129273,20.5114746 18.7466431,20.6303101 C18.6803589,20.7491455 18.5551148,20.8227539 18.4190674,20.8227539 L18.4190674,20.8227539 L18.2007599,20.8227539 L19.5757447,23.4746704 C19.6359864,23.5909424 19.6312256,23.7302857 19.5632935,23.8421631 C19.4951783,23.9540406 19.3737794,24.0223389 19.242859,24.0223389 L19.242859,24.0223389 L18.8094254,24.0223389 L20.3566895,27.090271 C20.4152833,27.206543 20.4094239,27.3447876 20.3411255,27.4557495 C20.2728272,27.5665283 20.1519776,27.6340942 20.0217896,27.6340942 L20.0217896,27.6340942 L16.3525391,27.6340942 L16.3525391,29.25 L25.4206544,29.25 L25.4206544,27.6340942 L21.7514039,27.6340942 C21.6212159,27.6340942 21.5003663,27.5665284 21.4320679,27.4557495 C21.3637696,27.3447876 21.3579102,27.206543 21.416504,27.090271 L21.416504,27.090271 L22.9637681,24.0223389 L22.5303345,24.0223389 C22.3994141,24.0223389 22.2780152,23.9540405 22.2098999,23.8421631 C22.1419678,23.7302856 22.1372071,23.5909424 22.1974488,23.4746704 L22.1974488,23.4746704 L23.5724335,20.8227539 L23.354126,20.8227539 C23.2180787,20.8227539 23.0928345,20.7491455 23.0265503,20.6303101 C22.9602662,20.5114746 22.9637452,20.3660889 23.0351563,20.2505493 L23.0351563,20.2505493 L25.4766846,16.3027954 C25.544983,16.1921997 25.6656494,16.125 25.7956543,16.125 Z M27.7874527,24.0223389 L23.8038559,24.0223389 L22.3605958,26.8840943 L29.2307129,26.8840943 L27.7874527,24.0223389 Z M17.9693375,24.0223389 L13.9857407,24.0223389 L12.5424805,26.8840943 L19.4125977,26.8840943 L17.9693375,24.0223389 Z M8.18711094,24.0223389 L4.20351414,24.0223389 L2.76025396,26.8840943 L9.63037111,26.8840943 L8.18711094,24.0223389 Z M27.1738663,20.8227539 L24.4172593,20.8227539 L23.1472168,23.2723389 L28.4439087,23.2723389 L27.1738663,20.8227539 Z M17.3559342,20.8227539 L14.5993043,20.8227539 L13.3291016,23.2723389 L18.6259766,23.2723389 L17.3559342,20.8227539 Z M7.57354741,20.8227539 L4.81691746,20.8227539 L3.54687504,23.2723389 L8.84375004,23.2723389 L7.57354741,20.8227539 Z M25.7956543,17.2130127 L24.0270386,20.0727539 L27.5642701,20.0727539 L25.7956543,17.2130127 Z M15.9775391,17.2130127 L14.2089234,20.0727539 L17.7461548,20.0727539 L15.9775391,17.2130127 Z M6.19531254,17.2130127 L4.42669681,20.0727539 L7.96392826,20.0727539 L6.19531254,17.2130127 Z M21.1661988,13.5170288 C22.1483765,13.5170288 22.9474488,14.3161011 22.9474488,15.2982788 C22.9474488,16.2804565 22.1483765,17.0795288 21.1661988,17.0795288 C20.1840211,17.0795288 19.3849488,16.2804565 19.3849488,15.2982788 C19.3849488,14.3161011 20.1840211,13.5170288 21.1661988,13.5170288 Z M21.1661988,14.2670288 C20.5974732,14.2670288 20.1349488,14.7295532 20.1349488,15.2982788 C20.1349488,15.8670044 20.5974732,16.3295288 21.1661988,16.3295288 C21.7349244,16.3295288 22.1974488,15.8670044 22.1974488,15.2982788 C22.1974488,14.7295532 21.7349244,14.2670288 21.1661988,14.2670288 Z M10.3351441,12.1107788 C11.3173218,12.1107788 12.1163941,12.9098511 12.1163941,13.8920288 C12.1163941,14.8742065 11.3173218,15.6732788 10.3351441,15.6732788 C9.35296636,15.6732788 8.55389409,14.8742065 8.55389409,13.8920288 C8.55389409,12.9098511 9.35296636,12.1107788 10.3351441,12.1107788 Z M10.3351441,12.8607788 C9.76641849,12.8607788 9.30389409,13.3233032 9.30389409,13.8920288 C9.30389409,14.4607544 9.76641849,14.9232788 10.3351441,14.9232788 C10.9038697,14.9232788 11.3663941,14.4607544 11.3663941,13.8920288 C11.3663941,13.3233032 10.9038697,12.8607788 10.3351441,12.8607788 Z M3.05798345,7.83636476 C4.04016118,7.83636476 4.83923345,8.63543704 4.83923345,9.61761476 C4.83923345,10.5997925 4.04016118,11.3988648 3.05798345,11.3988648 C2.07580573,11.3988648 1.27673345,10.5997925 1.27673345,9.61761476 C1.27673345,8.63543704 2.07580573,7.83636476 3.05798345,7.83636476 Z M29.2074586,7.59375 C30.1896363,7.59375 30.9887086,8.39282228 30.9887086,9.375 C30.9887086,10.3571777 30.1896363,11.15625 29.2074586,11.15625 C28.2252808,11.15625 27.4262086,10.3571777 27.4262086,9.375 C27.4262086,8.39282228 28.2252808,7.59375 29.2074586,7.59375 Z M16.8474732,7.42327882 C17.8296509,7.42327882 18.6287232,8.2223511 18.6287232,9.20452882 C18.6287232,10.1867065 17.8296509,10.9857788 16.8474732,10.9857788 C15.8652955,10.9857788 15.0662232,10.1867065 15.0662232,9.20452882 C15.0662232,8.2223511 15.8652955,7.42327882 16.8474732,7.42327882 Z M3.05798345,8.58636476 C2.48925785,8.58636476 2.02673345,9.04888916 2.02673345,9.61761476 C2.02673345,10.1863404 2.48925785,10.6488648 3.05798345,10.6488648 C3.62670905,10.6488648 4.08923345,10.1863404 4.08923345,9.61761476 C4.08923345,9.04888916 3.62670905,8.58636476 3.05798345,8.58636476 Z M29.2074586,8.34375 C28.638733,8.34375 28.1762086,8.8062744 28.1762086,9.375 C28.1762086,9.9437256 28.638733,10.40625 29.2074586,10.40625 C29.7761842,10.40625 30.2387086,9.9437256 30.2387086,9.375 C30.2387086,8.8062744 29.7761842,8.34375 29.2074586,8.34375 Z M16.8474732,8.17327882 C16.2787476,8.17327882 15.8162232,8.63580322 15.8162232,9.20452882 C15.8162232,9.77325442 16.2787476,10.2357788 16.8474732,10.2357788 C17.4161988,10.2357788 17.8787232,9.77325442 17.8787232,9.20452882 C17.8787232,8.63580322 17.4161988,8.17327882 16.8474732,8.17327882 Z M23.8296509,5.90625 C24.8118287,5.90625 25.6109009,6.70532227 25.6109009,7.6875 C25.6109009,8.66967772 24.8118287,9.46875 23.8296509,9.46875 C22.8474732,9.46875 22.0484009,8.66967772 22.0484009,7.6875 C22.0484009,6.70532227 22.8474732,5.90625 23.8296509,5.90625 Z M23.8296509,6.65625 C23.2609253,6.65625 22.7984009,7.1187744 22.7984009,7.6875 C22.7984009,8.2562256 23.2609253,8.71875 23.8296509,8.71875 C24.3983765,8.71875 24.8609009,8.2562256 24.8609009,7.6875 C24.8609009,7.1187744 24.3983765,6.65625 23.8296509,6.65625 Z M9.62634283,4.5 C10.6085206,4.5 11.4075928,5.29907227 11.4075928,6.28125 C11.4075928,7.26342773 10.6085206,8.0625 9.62634283,8.0625 C8.6441651,8.0625 7.84509283,7.26342773 7.84509283,6.28125 C7.84509283,5.29907227 8.6441651,4.5 9.62634283,4.5 Z M9.62634283,5.25 C9.05761723,5.25 8.59509283,5.7125244 8.59509283,6.28125 C8.59509283,6.8499756 9.05761723,7.3125 9.62634283,7.3125 C10.1950684,7.3125 10.6575928,6.8499756 10.6575928,6.28125 C10.6575928,5.7125244 10.1950684,5.25 9.62634283,5.25 Z M15.7448121,0.667785637 C16.7269898,0.667785637 17.5260621,1.46685791 17.5260621,2.44903564 C17.5260621,3.43121336 16.7269898,4.23028564 15.7448121,4.23028564 C14.7626344,4.23028564 13.9635621,3.43121336 13.9635621,2.44903564 C13.9635621,1.46685791 14.7626344,0.667785637 15.7448121,0.667785637 Z M26.2017823,0 C27.18396,0 27.9830323,0.799072275 27.9830323,1.78125 C27.9830323,2.76342773 27.18396,3.5625 26.2017823,3.5625 C25.2196046,3.5625 24.4205323,2.76342773 24.4205323,1.78125 C24.4205323,0.799072275 25.2196046,0 26.2017823,0 Z M4.46423345,0 C5.44641118,0 6.24548345,0.799072275 6.24548345,1.78125 C6.24548345,2.76342773 5.44641118,3.5625 4.46423345,3.5625 C3.48205573,3.5625 2.68298345,2.76342773 2.68298345,1.78125 C2.68298345,0.799072275 3.48205573,0 4.46423345,0 Z M15.7448121,1.41778564 C15.1760865,1.41778564 14.7135621,1.88031004 14.7135621,2.44903564 C14.7135621,3.01776124 15.1760865,3.48028564 15.7448121,3.48028564 C16.3135377,3.48028564 16.7760621,3.01776124 16.7760621,2.44903564 C16.7760621,1.88031004 16.3135377,1.41778564 15.7448121,1.41778564 Z M26.2017823,0.75 C25.6330567,0.75 25.1705323,1.2125244 25.1705323,1.78125 C25.1705323,2.3499756 25.6330567,2.8125 26.2017823,2.8125 C26.7705079,2.8125 27.2330323,2.3499756 27.2330323,1.78125 C27.2330323,1.2125244 26.7705079,0.75 26.2017823,0.75 Z M4.46423345,0.75 C3.89550785,0.75 3.43298345,1.2125244 3.43298345,1.78125 C3.43298345,2.3499756 3.89550785,2.8125 4.46423345,2.8125 C5.03295905,2.8125 5.49548345,2.3499756 5.49548345,1.78125 C5.49548345,1.2125244 5.03295905,0.75 4.46423345,0.75 Z" id="Combined-Shape"></path>
            </g>
        </g>
    </g>
</svg>