<?xml version="1.0" encoding="UTF-8"?>
<svg width="10px" height="6px" viewBox="0 0 10 6" version="1.1" xmlns="http://www.w3.org/2000/svg" xmlns:xlink="http://www.w3.org/1999/xlink">
    <title>Path</title>
    <g id="Page-1" stroke="none" stroke-width="1" fill="none" fill-rule="evenodd">
        <g id="Ipad---Blank-Estimate" transform="translate(-951.000000, -276.000000)" fill="#99979B">
            <path d="M951.714286,281.714286 C951.319762,281.714286 951,281.394286 951,281 C951,280.808095 951.075714,280.634286 951.19881,280.505714 L951.196905,280.504048 L955.482619,276.218333 L955.482857,276.218571 C955.612857,276.08381 955.795,276 955.996905,276 C955.997381,276 955.997857,276 955.998571,276 C955.999048,276 955.999524,276 956,276 C956.201905,276 956.384048,276.08381 956.514048,276.218571 L956.514286,276.218333 L960.8,280.504048 L960.799762,280.504286 C960.92381,280.632857 961,280.807381 961,281 C961,281.394286 960.680238,281.714286 960.285714,281.714286 C960.093095,281.714286 959.918571,281.637857 959.79,281.514048 L959.789762,281.514286 L955.998571,277.722857 L952.255952,281.465238 C952.125,281.617619 951.930952,281.714286 951.714286,281.714286" id="Path" transform="translate(956.000000, 278.857143) rotate(-180.000000) translate(-956.000000, -278.857143) "></path>
        </g>
    </g>
</svg>