<?xml version="1.0" encoding="UTF-8"?>
<svg width="16px" height="15px" viewBox="0 0 16 15" version="1.1" xmlns="http://www.w3.org/2000/svg" xmlns:xlink="http://www.w3.org/1999/xlink">
    <title>Group 3 Copy 4</title>
    <defs>
        <polygon id="path-1" points="0 -2.5e-05 16 -2.5e-05 16 14.249925 0 14.249925"></polygon>
    </defs>
    <g id="Page-1" stroke="none" stroke-width="1" fill="none" fill-rule="evenodd">
        <g id="Ipad---Products" transform="translate(-1121.000000, -351.000000)">
            <g id="Group-3-Copy-4" transform="translate(1121.000000, 351.000000)">
                <mask id="mask-2" fill="white">
                    <use xlink:href="#path-1"></use>
                </mask>
                <g id="Clip-2"></g>
                <path d="M12,11.249925 L12.75,11.249925 L12.75,10.499925 C12.75,10.085675 13.086,9.749925 13.5,9.749925 C13.91425,9.749925 14.25,10.085675 14.25,10.499925 L14.25,11.249925 L15,11.249925 C15.41425,11.249925 15.75,11.585925 15.75,11.999925 C15.75,12.414175 15.41425,12.749925 15,12.749925 L14.25,12.749925 L14.25,13.499925 C14.25,13.914175 13.91425,14.249925 13.5,14.249925 C13.086,14.249925 12.75,13.914175 12.75,13.499925 L12.75,12.749925 L12,12.749925 C11.58575,12.749925 11.25,12.414175 11.25,11.999925 C11.25,11.585925 11.58575,11.249925 12,11.249925 L12,11.249925 Z M0,2.249925 L0,1.749925 L0,0.749925 C0,0.335925 0.33575,-7.5e-05 0.75,-7.5e-05 L1.75,-7.5e-05 L2.25,-7.5e-05 L3,-7.5e-05 L4.5,-7.5e-05 L5.9955,1.499925 L15.25,1.499925 C15.66425,1.499925 16,1.835675 16,2.249925 L16,2.999925 L0,2.999925 L0,2.249925 Z M15,10.499925 C15,9.671675 14.32825,8.999925 13.5,8.999925 C12.67175,8.999925 12,9.671675 12,10.499925 C11.17175,10.499925 10.5,11.171675 10.5,11.999925 C10.5,12.176175 10.536,12.342925 10.59175,12.499925 L0.75,12.499925 C0.33575,12.499925 0,12.164175 0,11.749925 L0,10.749925 L0,9.499925 L0,8.499925 L0,7.249925 L0,6.249925 L0,3.749925 L16,3.749925 L16,6.249925 L16,7.249925 L16,8.499925 L16,9.499925 L16,10.749925 L16,10.889425 C15.73425,10.649925 15.386,10.499925 15,10.499925 L15,10.499925 Z" id="Fill-1" fill="#99979B" mask="url(#mask-2)"></path>
            </g>
        </g>
    </g>
</svg>