<?xml version="1.0" encoding="UTF-8"?>
<svg width="31px" height="31px" viewBox="0 0 31 31" version="1.1" xmlns="http://www.w3.org/2000/svg" xmlns:xlink="http://www.w3.org/1999/xlink">
    <title>noun_Home_1448249</title>
    <g id="Page-1" stroke="none" stroke-width="1" fill="none" fill-rule="evenodd">
        <g id="Menu" transform="translate(-42.000000, -194.000000)" fill="#000000" fill-rule="nonzero" stroke="#000000" stroke-width="0.25">
            <g id="noun_Home_1448249" transform="translate(43.000000, 195.000000)">
                <path d="M29.5037037,12.7855556 L15.0592593,0.0966666667 C14.9192593,-0.0259259259 14.7103704,-0.0259259259 14.5703704,0.0966666667 L0.125925926,12.7855556 C0.0103703704,12.8874074 -0.0303703704,13.05 0.0240740741,13.1944444 C0.0781481481,13.3388889 0.216666667,13.4340741 0.370740741,13.4340741 L2.39222222,13.4340741 L2.39222222,29.2637037 C2.39222222,29.4681481 2.55814815,29.6340741 2.76259259,29.6340741 L26.8681481,29.6340741 C27.0725926,29.6340741 27.2385185,29.4681481 27.2385185,29.2637037 L27.2385185,13.4340741 L29.2592593,13.4340741 C29.4133333,13.4340741 29.5514815,13.3385185 29.6059259,13.1944444 C29.6603704,13.05 29.6196296,12.8874074 29.5037037,12.7855556 Z M26.8674074,12.6933333 C26.662963,12.6933333 26.497037,12.8592593 26.497037,13.0637037 L26.497037,28.8933333 L3.13259259,28.8933333 L3.13259259,13.0637037 C3.13259259,12.8592593 2.96666667,12.6933333 2.76222222,12.6933333 L1.35333333,12.6933333 L14.8148148,0.868148148 L28.2762963,12.6937037 L26.8674074,12.6937037 L26.8674074,12.6933333 Z" id="Shape"></path>
            </g>
        </g>
    </g>
</svg>