<?xml version="1.0" encoding="UTF-8"?>
<svg width="13px" height="14px" viewBox="0 0 13 14" version="1.1" xmlns="http://www.w3.org/2000/svg" xmlns:xlink="http://www.w3.org/1999/xlink">
    <title>Group 3</title>
    <defs>
        <polygon id="path-1" points="0 2.25806452e-05 12.1935258 2.25806452e-05 12.1935258 14 0 14"></polygon>
    </defs>
    <g id="Page-1" stroke="none" stroke-width="1" fill="none" fill-rule="evenodd">
        <g id="Ipad---Customer-List" transform="translate(-302.000000, -771.000000)">
            <g id="Group-3" transform="translate(302.000000, 771.000000)">
                <mask id="mask-2" fill="white">
                    <use xlink:href="#path-1"></use>
                </mask>
                <g id="Clip-2"></g>
                <path d="M5.64513871,4.51795806 C5.27097742,4.51795806 4.96771935,4.21402258 4.96771935,3.83895806 L4.96771935,2.48118387 L4.96771935,2.25806452e-05 L4.97652581,2.25806452e-05 L9.93546129,4.51795806 L6.99997742,4.51795806 L5.64513871,4.51795806 Z M7.39694516,9.20321613 C7.15171935,9.44844194 6.99997742,9.78715161 6.99997742,10.1613129 C6.99997742,10.9096355 7.60671935,11.5161516 8.35481613,11.5161516 C8.43226774,11.5161516 8.50678387,11.5057645 8.58062258,11.4933452 L8.58062258,13.0967968 L0.677396774,13.0967968 C0.303235484,13.0967968 -2.25806452e-05,12.7935387 -2.25806452e-05,12.4193774 L-2.25806452e-05,0.677441935 C-2.25806452e-05,0.303280645 0.303235484,2.25806452e-05 0.677396774,2.25806452e-05 L2.25804194,2.25806452e-05 L4.2903,2.25806452e-05 L4.2903,2.48118387 L4.2903,3.83895806 C4.2903,4.58886129 4.89704194,5.19673226 5.64513871,5.19673226 L6.99997742,5.19673226 L9.93546129,5.19673226 L9.93546129,7.22582903 C9.5613,7.22582903 9.22259032,7.37757097 8.97759032,7.62257097 L7.39694516,9.20321613 Z M11.5161065,10.8387323 C11.3291387,10.8387323 11.1597839,10.7628613 11.037171,10.6402484 L10.6128806,10.2159581 L10.6128806,13.3226032 C10.6128806,13.6965387 10.3096226,14.0000226 9.93546129,14.0000226 C9.5613,14.0000226 9.25804194,13.6965387 9.25804194,13.3226032 L9.25804194,10.2159581 L8.83375161,10.6402484 C8.71113871,10.7628613 8.54178387,10.8387323 8.35481613,10.8387323 C7.98088065,10.8387323 7.67739677,10.5352484 7.67739677,10.1613129 C7.67739677,9.97434516 7.75326774,9.80499032 7.87588065,9.68237742 L9.45652581,8.10173226 C9.57913871,7.97911935 9.74849355,7.90324839 9.93546129,7.90324839 C10.122429,7.90324839 10.2917839,7.97911935 10.4143968,8.10173226 L11.9950419,9.68237742 C12.1176548,9.80499032 12.1935258,9.97434516 12.1935258,10.1613129 C12.1935258,10.5352484 11.8902677,10.8387323 11.5161065,10.8387323 L11.5161065,10.8387323 Z" id="Fill-1" fill="#000000" mask="url(#mask-2)"></path>
            </g>
        </g>
    </g>
</svg>