<?xml version="1.0" encoding="UTF-8"?>
<svg width="31px" height="31px" viewBox="0 0 31 31" version="1.1" xmlns="http://www.w3.org/2000/svg" xmlns:xlink="http://www.w3.org/1999/xlink">
    <title>Group 5</title>
    <g id="Page-1" stroke="none" stroke-width="1" fill="none" fill-rule="evenodd">
        <g id="Ipad---Home" transform="translate(-805.000000, -581.000000)" fill="#000000" fill-rule="nonzero" stroke="#000000" stroke-width="0.25">
            <g id="Group-5" transform="translate(806.000000, 582.000000)">
                <path d="M9.39925926,8.91444444 L9.28518519,8.91444444 C7.94185185,8.91444444 6.84888889,7.8262963 6.84888889,6.48814815 C6.84888889,5.15 7.94185185,4.06148148 9.28518519,4.06148148 C10.6285185,4.06148148 11.7214815,5.15 11.7214815,6.48814815 C11.7214815,6.69296296 11.887037,6.85851852 12.0918519,6.85851852 C12.2966667,6.85851852 12.4622222,6.69296296 12.4622222,6.48814815 C12.4622222,4.86666667 11.2333333,3.52777778 9.65555556,3.34407407 L9.65555556,2.47481481 C9.65555556,2.27 9.49,2.10444444 9.28518519,2.10444444 C9.08037037,2.10444444 8.91481481,2.27 8.91481481,2.47481481 L8.91481481,3.34407407 C7.33703704,3.52777778 6.10814815,4.8662963 6.10814815,6.48814815 C6.10814815,8.23444444 7.53333333,9.65518519 9.28518519,9.65518519 L9.39925926,9.65518519 C10.7425926,9.65518519 11.8355556,10.7433333 11.8355556,12.0814815 C11.8355556,13.4196296 10.7425926,14.5081481 9.39925926,14.5081481 C8.05592593,14.5081481 6.96296296,13.4196296 6.96296296,12.0814815 C6.96296296,11.8766667 6.79740741,11.7111111 6.59259259,11.7111111 C6.38777778,11.7111111 6.22222222,11.8766667 6.22222222,12.0814815 C6.22222222,13.6633333 7.39259259,14.9744444 8.91518519,15.2081481 L8.91518519,16.0948148 C8.91518519,16.2996296 9.08074074,16.4651852 9.28555556,16.4651852 C9.49037037,16.4651852 9.65592593,16.2996296 9.65592593,16.0948148 L9.65592593,15.2359259 C11.2881481,15.1048148 12.5766667,13.7418519 12.5766667,12.0814815 C12.5762963,10.3351852 11.1511111,8.91444444 9.39925926,8.91444444 Z" id="Path"></path>
                <path d="M23.1066667,15.0796296 L23.4577778,14.2844444 C23.5403704,14.097037 23.4555556,13.8785185 23.2685185,13.7959259 C23.0803704,13.7140741 22.8622222,13.7988889 22.78,13.9851852 L22.4288889,14.7807407 C20.9111111,14.312963 19.247037,15.0418519 18.592963,16.5248148 C18.2514815,17.2988889 18.232963,18.1603704 18.5407407,18.95 C18.8485185,19.7392593 19.4455556,20.3622222 20.2222222,20.7044444 L20.3262963,20.7503704 C20.9218519,21.012963 21.38,21.4911111 21.6155556,22.0962963 C21.8518519,22.7014815 21.8377778,23.3607407 21.5762963,23.9537037 C21.0366667,25.1777778 19.5988889,25.7333333 18.3681481,25.1907407 C17.1392593,24.6488889 16.5785185,23.2118519 17.1181481,21.9877778 C17.2007407,21.8007407 17.1159259,21.5818519 16.9285185,21.4996296 C16.7418519,21.4174074 16.522963,21.5022222 16.4403704,21.6892593 C15.8022222,23.1366667 16.3444444,24.8081481 17.6425926,25.6359259 L17.2848148,26.4474074 C17.2022222,26.6344444 17.287037,26.8533333 17.4744444,26.9355556 C17.522963,26.957037 17.5737037,26.967037 17.6233333,26.967037 C17.7659259,26.967037 17.9014815,26.8844444 17.9625926,26.7459259 L18.3092593,25.9596296 C18.6518519,26.0788889 19.002963,26.1396296 19.35,26.1396296 C20.5692593,26.1392593 21.732963,25.4351852 22.2544444,24.2525926 C22.5959259,23.4785185 22.6144444,22.617037 22.3066667,21.8274074 C21.9988889,21.0381481 21.4018519,20.4151852 20.6251852,20.072963 L20.5211111,20.027037 C19.9255556,19.7644444 19.4674074,19.2862963 19.2318519,18.6811111 C18.9955556,18.0759259 19.0096296,17.4166667 19.2711111,16.8237037 C19.8111111,15.6 21.2514815,15.0451852 22.4792593,15.5866667 C23.7081481,16.1285185 24.2688889,17.5655556 23.7292593,18.7896296 C23.6466667,18.9766667 23.7314815,19.1955556 23.9188889,19.2777778 C24.1059259,19.3603704 24.3248148,19.2755556 24.407037,19.0881481 C25.0607407,17.6048148 24.4759259,15.8840741 23.1066667,15.0796296 Z" id="Path"></path>
                <path d="M24.1174074,11.87 C22.3014815,11.0692593 20.2711111,10.8811111 18.3444444,11.3125926 C18.4903704,10.6596296 18.57,9.98148148 18.57,9.28518519 C18.57,4.16518519 14.4048148,-4.21062362e-14 9.28518519,-4.21062362e-14 C4.16518519,-4.21062362e-14 -2.13162821e-13,4.16518519 -2.13162821e-13,9.28518519 C-2.13162821e-13,14.4048148 4.16518519,18.57 9.28518519,18.57 C9.98333333,18.57 10.6625926,18.49 11.317037,18.3433333 C10.3603704,22.6174074 12.5733333,27.0748148 16.6244444,28.8614815 C17.8392593,29.397037 19.1077778,29.6507407 20.3574074,29.6507407 C23.9266667,29.6503704 27.3366667,27.5818519 28.8666667,24.1122222 C29.8674074,21.842963 29.9244444,19.32 29.0277778,17.0074074 C28.1311111,14.6948148 26.3866667,12.8707407 24.1174074,11.87 Z M0.740740741,9.28481481 C0.740740741,4.57333333 4.57407407,0.74037037 9.28518519,0.74037037 C13.9962963,0.74037037 17.8292593,4.5737037 17.8292593,9.28481481 C17.8292593,13.9959259 13.9966667,17.8288889 9.28518519,17.8288889 C4.5737037,17.8288889 0.740740741,13.9962963 0.740740741,9.28481481 Z M28.1888889,23.8133333 C26.2881481,28.1240741 21.2362963,30.0859259 16.9233333,28.1837037 C13.0744444,26.4862963 11.0218519,22.1688889 12.1274074,18.1233333 C14.9651852,17.2085185 17.21,14.962963 18.1240741,12.1248148 C20.0088889,11.6103704 22.0277778,11.7581481 23.8185185,12.5477778 C25.9066667,13.4685185 27.5114815,15.1477778 28.3366667,17.2751852 C29.1625926,19.4025926 29.11,21.7248148 28.1888889,23.8133333 Z" id="Shape"></path>
            </g>
        </g>
    </g>
</svg>