<?xml version="1.0" encoding="UTF-8"?>
<svg width="31px" height="31px" viewBox="0 0 31 31" version="1.1" xmlns="http://www.w3.org/2000/svg" xmlns:xlink="http://www.w3.org/1999/xlink">
    <title>noun_measure_1240249</title>
    <g id="Page-1" stroke="none" stroke-width="1" fill="none" fill-rule="evenodd">
        <g id="Ipad---Home" transform="translate(-67.000000, -744.000000)" fill="#1C0000" fill-rule="nonzero" stroke="#1C0000" stroke-width="0.25">
            <g id="noun_measure_1240249" transform="translate(68.000000, 744.000000)">
                <path d="M27.7703704,0.325925926 C28.8211111,0.325925926 29.6759259,1.05666667 29.6751857,1.95444444 L29.6751857,1.95444444 L29.6751857,23.9440741 C29.6751857,24.0022222 29.6614815,24.0596296 29.6351852,24.1118519 L29.6351852,24.1118519 L26.8796296,29.5362963 C26.8644444,29.5666667 26.8444444,29.5951852 26.8214815,29.62 C26.6244444,29.8333333 26.3318519,29.9555556 26.0181481,29.9555556 L26.0181481,29.9555556 L25.8853299,29.9481633 C25.6230688,29.9187755 25.3837037,29.8028571 25.2148148,29.62 C25.1914815,29.5944444 25.1722222,29.5666667 25.1566667,29.5362963 L25.1566667,29.5362963 L22.4011111,24.1118519 C22.3748148,24.0596296 22.3611111,24.0022222 22.3611111,23.9440741 L22.3611111,23.9440741 L22.3611111,1.95444444 C22.3611111,1.05666667 23.2159259,0.325925926 24.2666667,0.325925926 L24.2666667,0.325925926 Z M19.3533333,0.325925926 C20.2033333,0.325925926 20.8951852,1.01740741 20.8951852,1.86740741 L20.8951852,1.86740741 L20.8951852,28.4140741 C20.8951852,29.2640741 20.2037037,29.9555556 19.3537037,29.9555556 L19.3537037,29.9555556 L1.58814815,29.9555556 C0.737777778,29.9555556 0.0462962963,29.2640741 0.0462962963,28.4140741 L0.0462962963,28.4140741 L0.0462962963,1.86740741 C0.0462962963,1.01740741 0.738148148,0.325925926 1.58814815,0.325925926 L1.58814815,0.325925926 Z M26.84,27.98 L25.1974074,27.98 L25.7885185,29.1437037 C25.8462963,29.1885185 25.9292593,29.2144444 26.0185185,29.2144444 L26.0185185,29.2144444 L26.1052401,29.2060631 C26.1606584,29.1950617 26.2103704,29.1735802 26.2488889,29.1437037 L26.2488889,29.1437037 L26.84,27.98 Z M19.3537037,1.06666667 L1.58814815,1.06666667 C1.1462963,1.06666667 0.787037037,1.42592593 0.787037037,1.86740741 L0.787037037,1.86740741 L0.787037037,28.4140741 C0.787037037,28.8555556 1.14666667,29.2148148 1.58814815,29.2148148 L1.58814815,29.2148148 L19.3537037,29.2148148 C19.7951852,29.2148148 20.1544444,28.8555556 20.1544444,28.4140741 L20.1544444,28.4140741 L20.1544444,1.86740741 C20.1544444,1.42592593 19.7951852,1.06666667 19.3537037,1.06666667 L19.3537037,1.06666667 Z M6.48962963,23.0918519 C6.69444444,23.0918519 6.86,23.2574074 6.86,23.4622222 L6.86,23.4622222 L6.86,27.0662963 C6.86,27.2711111 6.69407407,27.4366667 6.48962963,27.4366667 L6.48962963,27.4366667 L2.86555556,27.4366667 C2.66111111,27.4366667 2.49518519,27.2711111 2.49518519,27.0662963 L2.49518519,27.0662963 L2.49518519,23.4622222 C2.49518519,23.2574074 2.66111111,23.0918519 2.86555556,23.0918519 L2.86555556,23.0918519 Z M12.2825926,23.0918519 C12.487037,23.0918519 12.652963,23.2574074 12.652963,23.4622222 L12.652963,23.4622222 L12.652963,27.0662963 C12.652963,27.2711111 12.487037,27.4366667 12.2825926,27.4366667 L12.2825926,27.4366667 L8.65851852,27.4366667 C8.45407407,27.4366667 8.28814815,27.2711111 8.28814815,27.0662963 L8.28814815,27.0662963 L8.28814815,23.4622222 C8.28814815,23.2574074 8.45407407,23.0918519 8.65851852,23.0918519 L8.65851852,23.0918519 Z M18.0755556,23.0918519 C18.28,23.0918519 18.4459259,23.2574074 18.4459259,23.4622222 L18.4459259,23.4622222 L18.4459259,27.0662963 C18.4459259,27.2711111 18.28,27.4366667 18.0755556,27.4366667 L18.0755556,27.4366667 L14.4514815,27.4366667 C14.247037,27.4366667 14.0811111,27.2711111 14.0811111,27.0662963 L14.0811111,27.0662963 L14.0811111,23.4622222 C14.0811111,23.2574074 14.247037,23.0918519 14.4514815,23.0918519 L14.4514815,23.0918519 Z M28.7840741,24.152963 L23.252963,24.152963 L24.8211111,27.2396296 L27.2162963,27.2396296 L28.7840741,24.152963 Z M6.11925926,23.8325926 L3.23592593,23.8325926 L3.23592593,26.6959259 L6.11925926,26.6959259 L6.11925926,23.8325926 Z M11.9122222,23.8325926 L9.02888889,23.8325926 L9.02888889,26.6959259 L11.9122222,26.6959259 L11.9122222,23.8325926 Z M17.7051852,23.8325926 L14.8218519,23.8325926 L14.8218519,26.6959259 L17.7051852,26.6959259 L17.7051852,23.8325926 Z M26.8788889,5.65 L25.1577778,5.65 L25.1577778,23.4122222 L26.8788889,23.4122222 L26.8788889,5.65 Z M24.417037,5.65 L23.1018519,5.65 L23.1018519,23.4122222 L24.417037,23.4122222 L24.417037,5.65 Z M28.9351852,5.65 L27.6196296,5.65 L27.6196296,23.4122222 L28.9351852,23.4122222 L28.9351852,5.65 Z M6.48962963,17.4125926 C6.69444444,17.4125926 6.86,17.5781481 6.86,17.782963 L6.86,17.782963 L6.86,21.3874074 C6.86,21.5922222 6.69407407,21.7577778 6.48962963,21.7577778 L6.48962963,21.7577778 L2.86555556,21.7577778 C2.66111111,21.7577778 2.49518519,21.5922222 2.49518519,21.3874074 L2.49518519,21.3874074 L2.49518519,17.782963 C2.49518519,17.5781481 2.66111111,17.4125926 2.86555556,17.4125926 L2.86555556,17.4125926 Z M12.2825926,17.4125926 C12.487037,17.4125926 12.652963,17.5781481 12.652963,17.782963 L12.652963,17.782963 L12.652963,21.3874074 C12.652963,21.5922222 12.487037,21.7577778 12.2825926,21.7577778 L12.2825926,21.7577778 L8.65851852,21.7577778 C8.45407407,21.7577778 8.28814815,21.5922222 8.28814815,21.3874074 L8.28814815,21.3874074 L8.28814815,17.782963 C8.28814815,17.5781481 8.45407407,17.4125926 8.65851852,17.4125926 L8.65851852,17.4125926 Z M18.0755556,17.4125926 C18.28,17.4125926 18.4459259,17.5781481 18.4459259,17.782963 L18.4459259,17.782963 L18.4459259,21.3874074 C18.4459259,21.5922222 18.28,21.7577778 18.0755556,21.7577778 L18.0755556,21.7577778 L14.4514815,21.7577778 C14.247037,21.7577778 14.0811111,21.5922222 14.0811111,21.3874074 L14.0811111,21.3874074 L14.0811111,17.782963 C14.0811111,17.5781481 14.247037,17.4125926 14.4514815,17.4125926 L14.4514815,17.4125926 Z M6.11925926,18.1533333 L3.23592593,18.1533333 L3.23592593,21.017037 L6.11925926,21.017037 L6.11925926,18.1533333 Z M11.9122222,18.1533333 L9.02888889,18.1533333 L9.02888889,21.017037 L11.9122222,21.017037 L11.9122222,18.1533333 Z M17.7051852,18.1533333 L14.8218519,18.1533333 L14.8218519,21.017037 L17.7051852,21.017037 L17.7051852,18.1533333 Z M6.48962963,11.7337037 C6.69444444,11.7337037 6.86,11.8992593 6.86,12.1040741 L6.86,12.1040741 L6.86,15.7085185 C6.86,15.9133333 6.69407407,16.0788889 6.48962963,16.0788889 L6.48962963,16.0788889 L2.86555556,16.0788889 C2.66111111,16.0788889 2.49518519,15.9133333 2.49518519,15.7085185 L2.49518519,15.7085185 L2.49518519,12.1040741 C2.49518519,11.8992593 2.66111111,11.7337037 2.86555556,11.7337037 L2.86555556,11.7337037 Z M12.2825926,11.7337037 C12.487037,11.7337037 12.652963,11.8992593 12.652963,12.1040741 L12.652963,12.1040741 L12.652963,15.7085185 C12.652963,15.9133333 12.487037,16.0788889 12.2825926,16.0788889 L12.2825926,16.0788889 L8.65851852,16.0788889 C8.45407407,16.0788889 8.28814815,15.9133333 8.28814815,15.7085185 L8.28814815,15.7085185 L8.28814815,12.1040741 C8.28814815,11.8992593 8.45407407,11.7337037 8.65851852,11.7337037 L8.65851852,11.7337037 Z M18.0755556,11.7337037 C18.28,11.7337037 18.4459259,11.8992593 18.4459259,12.1040741 L18.4459259,12.1040741 L18.4459259,15.7085185 C18.4459259,15.9133333 18.28,16.0788889 18.0755556,16.0788889 L18.0755556,16.0788889 L14.4514815,16.0788889 C14.247037,16.0788889 14.0811111,15.9133333 14.0811111,15.7085185 L14.0811111,15.7085185 L14.0811111,12.1040741 C14.0811111,11.8992593 14.247037,11.7337037 14.4514815,11.7337037 L14.4514815,11.7337037 Z M6.11925926,12.4744444 L3.23592593,12.4744444 L3.23592593,15.3381481 L6.11925926,15.3381481 L6.11925926,12.4744444 Z M11.9122222,12.4744444 L9.02888889,12.4744444 L9.02888889,15.3381481 L11.9122222,15.3381481 L11.9122222,12.4744444 Z M17.7051852,12.4744444 L14.8218519,12.4744444 L14.8218519,15.3381481 L17.7051852,15.3381481 L17.7051852,12.4744444 Z M17.667037,2.7362963 C18.0962963,2.7362963 18.4459259,3.08555556 18.4459259,3.51481481 L18.4459259,3.51481481 L18.4459259,9.33777778 C18.4459259,9.76740741 18.0962963,10.1166667 17.667037,10.1166667 L17.667037,10.1166667 L3.27407407,10.1166667 C2.84444444,10.1166667 2.49518519,9.76703704 2.49518519,9.33777778 L2.49518519,9.33777778 L2.49518519,3.51518519 C2.49518519,3.08555556 2.84481481,2.7362963 3.27407407,2.7362963 L3.27407407,2.7362963 Z M17.667037,3.47666667 L3.27407407,3.47666667 C3.25296296,3.47666667 3.23592593,3.4937037 3.23592593,3.51481481 L3.23592593,3.51481481 L3.23592593,9.33740741 C3.23592593,9.35851852 3.25296296,9.37555556 3.27407407,9.37555556 L3.27407407,9.37555556 L17.667037,9.37555556 C17.6881481,9.37555556 17.7051852,9.35851852 17.7051852,9.33740741 L17.7051852,9.33740741 L17.7051852,3.51481481 C17.7051852,3.4937037 17.6881481,3.47666667 17.667037,3.47666667 L17.667037,3.47666667 Z M28.9351852,4.01407407 L23.1018519,4.01407407 L23.1018519,4.90925926 L28.9351852,4.90925926 L28.9351852,4.01407407 Z M27.7703704,1.06666667 L24.2666667,1.06666667 C23.6244444,1.06666667 23.1018519,1.46481481 23.1018519,1.95444444 L23.1018519,1.95444444 L23.1018519,3.27333333 L28.9351852,3.27333333 L28.9351852,1.95444444 C28.9351852,1.46481481 28.4125926,1.06666667 27.7703704,1.06666667 L27.7703704,1.06666667 Z" id="Combined-Shape"></path>
            </g>
        </g>
    </g>
</svg>