<?xml version="1.0" encoding="UTF-8"?>
<svg width="29px" height="32px" viewBox="0 0 29 32" version="1.1" xmlns="http://www.w3.org/2000/svg" xmlns:xlink="http://www.w3.org/1999/xlink">
    <title>noun_binder folder_2093093</title>
    <g id="Page-1" stroke="none" stroke-width="1" fill="none" fill-rule="evenodd">
        <g id="Ipad---Home" transform="translate(-435.000000, -581.000000)" fill="#1C0000" fill-rule="nonzero" stroke="#1C0000" stroke-width="0.25">
            <g id="noun_binder-folder_2093093" transform="translate(436.000000, 582.000000)">
                <path d="M26.5501099,0 C26.7572022,0 26.9251099,0.1677246 26.9251099,0.375 L26.9251099,0.375 L26.9251099,29.625 C26.9251099,29.8322754 26.7572022,30 26.5501099,30 L26.5501099,30 L0.449890125,30 C0.242797838,30 0.074890125,29.8322754 0.074890125,29.625 L0.074890125,29.625 L0.074890125,0.375 C0.074890125,0.1677246 0.242797838,0 0.449890125,0 L0.449890125,0 Z M5.90039063,0.75 L0.824890125,0.75 L0.824890125,29.25 L5.90039063,29.25 L5.90039063,0.75 Z M26.1751099,0.75 L6.65039063,0.75 L6.65039063,29.25 L26.1751099,29.25 L26.1751099,0.75 Z M15.0796509,25.4842529 C15.2867432,25.4842529 15.4546509,25.6519775 15.4546509,25.8592529 C15.4546509,26.0665283 15.2867432,26.2342529 15.0796509,26.2342529 L15.0796509,26.2342529 L9.890625,26.2342529 C9.68353271,26.2342529 9.515625,26.0665283 9.515625,25.8592529 C9.515625,25.6519775 9.68353271,25.4842529 9.890625,25.4842529 L9.890625,25.4842529 Z M22.640625,25.4842529 C22.8477173,25.4842529 23.015625,25.6519775 23.015625,25.8592529 C23.015625,26.0665283 22.8477173,26.2342529 22.640625,26.2342529 L22.640625,26.2342529 L17.4515991,26.2342529 C17.2445069,26.2342529 17.0765991,26.0665283 17.0765991,25.8592529 C17.0765991,25.6519775 17.2445069,25.4842529 17.4515991,25.4842529 L17.4515991,25.4842529 Z M3.28106689,22.4904785 C4.18249511,22.4904785 4.91583251,23.2236328 4.91583251,24.1248779 C4.91583251,25.026123 4.18249511,25.7596436 3.28106689,25.7596436 C2.37982178,25.7596436 1.64648438,25.026123 1.64648438,24.1248779 C1.64648438,23.2236328 2.37982178,22.4904785 3.28106689,22.4904785 Z M3.28106689,23.2404785 C2.79327394,23.2404785 2.39648438,23.637085 2.39648438,24.1248779 C2.39648438,24.6126709 2.79327394,25.0096436 3.28106689,25.0096436 C3.76885988,25.0096436 4.16583251,24.6126709 4.16583251,24.1248779 C4.16583251,23.637085 3.76885984,23.2404785 3.28106689,23.2404785 Z M15.0796509,21.140625 C15.2867432,21.140625 15.4546509,21.3083496 15.4546509,21.515625 C15.4546509,21.7229004 15.2867432,21.890625 15.0796509,21.890625 L15.0796509,21.890625 L9.890625,21.890625 C9.68353271,21.890625 9.515625,21.7229004 9.515625,21.515625 C9.515625,21.3083496 9.68353271,21.140625 9.890625,21.140625 L9.890625,21.140625 Z M22.640625,21.140625 C22.8477173,21.140625 23.015625,21.3083496 23.015625,21.515625 C23.015625,21.7229004 22.8477173,21.890625 22.640625,21.890625 L22.640625,21.890625 L17.4515991,21.890625 C17.2445069,21.890625 17.0765991,21.7229004 17.0765991,21.515625 C17.0765991,21.3083496 17.2445069,21.140625 17.4515991,21.140625 L17.4515991,21.140625 Z M3.28106689,16.4069824 C4.18249511,16.4069824 4.91583251,17.1405029 4.91583251,18.041748 C4.91583251,18.9429932 4.18249511,19.6761474 3.28106689,19.6761474 C2.37982178,19.6761474 1.64648438,18.9429932 1.64648438,18.041748 C1.64648438,17.1405029 2.37982178,16.4069824 3.28106689,16.4069824 Z M3.28106689,17.1569825 C2.79327394,17.1569825 2.39648438,17.5539551 2.39648438,18.0417481 C2.39648438,18.529541 2.79327394,18.9261475 3.28106689,18.9261475 C3.76885988,18.9261475 4.16583251,18.529541 4.16583251,18.0417481 C4.16583251,17.5539551 3.76885984,17.1569825 3.28106689,17.1569825 Z M15.0796509,16.7969971 C15.2867432,16.7969971 15.4546509,16.9647217 15.4546509,17.1719971 C15.4546509,17.3792725 15.2867432,17.5469971 15.0796509,17.5469971 L15.0796509,17.5469971 L9.890625,17.5469971 C9.68353271,17.5469971 9.515625,17.3792725 9.515625,17.1719971 C9.515625,16.9647217 9.68353271,16.7969971 9.890625,16.7969971 L9.890625,16.7969971 Z M22.640625,16.7969971 C22.8477173,16.7969971 23.015625,16.9647217 23.015625,17.1719971 C23.015625,17.3792725 22.8477173,17.5469971 22.640625,17.5469971 L22.640625,17.5469971 L17.4515991,17.5469971 C17.2445069,17.5469971 17.0765991,17.3792725 17.0765991,17.1719971 C17.0765991,16.9647217 17.2445069,16.7969971 17.4515991,16.7969971 L17.4515991,16.7969971 Z M3.28106689,10.3238525 C4.18249511,10.3238525 4.91583251,11.0570068 4.91583251,11.9582519 C4.91583251,12.859497 4.18249511,13.5930176 3.28106689,13.5930176 C2.37982178,13.5930176 1.64648438,12.859497 1.64648438,11.9582519 C1.64648438,11.0570068 2.37982178,10.3238525 3.28106689,10.3238525 Z M15.0796509,12.4530029 C15.2867432,12.4530029 15.4546509,12.6207275 15.4546509,12.8280029 C15.4546509,13.0352783 15.2867432,13.2030029 15.0796509,13.2030029 L15.0796509,13.2030029 L9.890625,13.2030029 C9.68353271,13.2030029 9.515625,13.0352783 9.515625,12.8280029 C9.515625,12.6207275 9.68353271,12.4530029 9.890625,12.4530029 L9.890625,12.4530029 Z M22.640625,12.4530029 C22.8477173,12.4530029 23.015625,12.6207275 23.015625,12.8280029 C23.015625,13.0352783 22.8477173,13.2030029 22.640625,13.2030029 L22.640625,13.2030029 L17.4515991,13.2030029 C17.2445069,13.2030029 17.0765991,13.0352783 17.0765991,12.8280029 C17.0765991,12.6207275 17.2445069,12.4530029 17.4515991,12.4530029 L17.4515991,12.4530029 Z M3.28106689,11.0738526 C2.79327394,11.0738526 2.39648438,11.470459 2.39648438,11.958252 C2.39648438,12.4460449 2.79327394,12.8430176 3.28106689,12.8430176 C3.76885988,12.8430176 4.16583251,12.4460449 4.16583251,11.958252 C4.16583251,11.470459 3.76885984,11.0738526 3.28106689,11.0738526 Z M15.0796509,8.109375 C15.2867432,8.109375 15.4546509,8.2770996 15.4546509,8.484375 C15.4546509,8.6916504 15.2867432,8.859375 15.0796509,8.859375 L15.0796509,8.859375 L9.890625,8.859375 C9.68353271,8.859375 9.515625,8.6916504 9.515625,8.484375 C9.515625,8.2770996 9.68353271,8.109375 9.890625,8.109375 L9.890625,8.109375 Z M22.640625,8.109375 C22.8477173,8.109375 23.015625,8.2770996 23.015625,8.484375 C23.015625,8.6916504 22.8477173,8.859375 22.640625,8.859375 L22.640625,8.859375 L17.4515991,8.859375 C17.2445069,8.859375 17.0765991,8.6916504 17.0765991,8.484375 C17.0765991,8.2770996 17.2445069,8.109375 17.4515991,8.109375 L17.4515991,8.109375 Z M3.28106689,4.24035645 C4.18249511,4.24035645 4.91583251,4.97387696 4.91583251,5.87512207 C4.91583251,6.77636719 4.18249511,7.50952147 3.28106689,7.50952147 C2.37982178,7.50952147 1.64648438,6.77636719 1.64648438,5.87512207 C1.64648438,4.97387696 2.37982178,4.24035645 3.28106689,4.24035645 Z M3.28106689,4.99035645 C2.79327394,4.99035645 2.39648438,5.38732912 2.39648438,5.87512207 C2.39648438,6.36291502 2.79327394,6.75952147 3.28106689,6.75952147 C3.76885984,6.75952147 4.16583251,6.36291502 4.16583251,5.87512207 C4.16583251,5.38732912 3.76885984,4.99035645 3.28106689,4.99035645 Z M15.0796509,3.76574708 C15.2867432,3.76574708 15.4546509,3.93347168 15.4546509,4.14074708 C15.4546509,4.34802248 15.2867432,4.51574708 15.0796509,4.51574708 L15.0796509,4.51574708 L9.890625,4.51574708 C9.68353271,4.51574708 9.515625,4.34802248 9.515625,4.14074708 C9.515625,3.93347168 9.68353271,3.76574708 9.890625,3.76574708 L9.890625,3.76574708 Z M22.640625,3.76574708 C22.8477173,3.76574708 23.015625,3.93347168 23.015625,4.14074708 C23.015625,4.34802248 22.8477173,4.51574708 22.640625,4.51574708 L22.640625,4.51574708 L17.4515991,4.51574708 C17.2445069,4.51574708 17.0765991,4.34802248 17.0765991,4.14074708 C17.0765991,3.93347168 17.2445069,3.76574708 17.4515991,3.76574708 L17.4515991,3.76574708 Z" id="Combined-Shape"></path>
            </g>
        </g>
    </g>
</svg>