<?xml version="1.0" encoding="UTF-8"?>
<svg width="25px" height="18px" viewBox="0 0 25 18" version="1.1" xmlns="http://www.w3.org/2000/svg" xmlns:xlink="http://www.w3.org/1999/xlink">
    <title>Fill 1</title>
    <g id="Page-1" stroke="none" stroke-width="1" fill="none" fill-rule="evenodd">
        <g id="Ipad---Jobs-List-Choose-Template" transform="translate(-844.000000, -364.000000)" fill="#262027">
            <g id="Group-9" transform="translate(53.000000, 58.000000)">
                <g id="Group-7" transform="translate(180.000000, 248.000000)">
                    <path d="M635.291935,62.1306452 L622.38871,75.033871 C621.950806,75.4717742 621.345968,75.7419355 620.677419,75.7419355 C620.009677,75.7419355 619.404839,75.4717742 618.966935,75.033871 L611.708871,67.7758065 C611.270968,67.3379032 611,66.7330645 611,66.0645161 C611,64.7290323 612.083871,63.6451613 613.419355,63.6451613 C614.087903,63.6451613 614.692742,63.916129 615.130645,64.3540323 L620.677419,69.9016129 L631.870161,58.708871 C632.308065,58.2709677 632.912903,58 633.580645,58 C634.916935,58 636,59.083871 636,60.4193548 C636,61.0879032 635.729032,61.6927419 635.291935,62.1306452" id="Fill-1"></path>
                </g>
            </g>
        </g>
    </g>
</svg>