<?xml version="1.0" encoding="UTF-8"?>
<svg width="24px" height="24px" viewBox="0 0 24 24" version="1.1" xmlns="http://www.w3.org/2000/svg" xmlns:xlink="http://www.w3.org/1999/xlink">
    <title>Fill 1</title>
    <g id="Page-1" stroke="none" stroke-width="1" fill="none" fill-rule="evenodd">
        <g id="Ipad---Jobs-List-Choose-Template" transform="translate(-790.000000, -361.000000)" fill="#8D1D1C">
            <g id="Group-9" transform="translate(53.000000, 58.000000)">
                <g id="Group-7" transform="translate(180.000000, 248.000000)">
                    <path d="M573.875,68.125 L570.125,68.125 L570.125,71.875 C570.125,72.496375 569.621375,73 569,73 C568.378625,73 567.875,72.496375 567.875,71.875 L567.875,68.125 L564.125,68.125 C563.503625,68.125 563,67.621375 563,67 C563,66.379 563.503625,65.875 564.125,65.875 L567.875,65.875 L567.875,62.125 C567.875,61.504 568.378625,61 569,61 C569.621375,61 570.125,61.504 570.125,62.125 L570.125,65.875 L573.875,65.875 C574.496375,65.875 575,66.379 575,67 C575,67.621375 574.496375,68.125 573.875,68.125 M569,55 C562.372625,55 557,60.372625 557,67 C557,73.627375 562.372625,79 569,79 C575.627375,79 581,73.627375 581,67 C581,60.372625 575.627375,55 569,55" id="Fill-1" transform="translate(569.000000, 67.000000) rotate(-315.000000) translate(-569.000000, -67.000000) "></path>
                </g>
            </g>
        </g>
    </g>
</svg>