<?xml version="1.0" encoding="UTF-8"?>
<svg width="6px" height="27px" viewBox="0 0 6 27" version="1.1" xmlns="http://www.w3.org/2000/svg" xmlns:xlink="http://www.w3.org/1999/xlink">
    <title>Group 4</title>
    <defs>
        <polygon id="path-1" points="0 0.5 6 0.5 6 25.5 0 25.5"></polygon>
    </defs>
    <g id="Page-1" stroke="none" stroke-width="1" fill="none" fill-rule="evenodd">
        <g id="Ipad---Customer-List" transform="translate(-1141.000000, -137.000000)">
            <g id="Group-3" transform="translate(1141.000000, 137.500000)">
                <mask id="mask-2" fill="white">
                    <use xlink:href="#path-1"></use>
                </mask>
                <g id="Clip-2"></g>
                <path d="M0,3.50037998 C0,1.84344626 1.34316421,0.5 2.99975006,0.5 C4.65683579,0.5 6,1.84344626 6,3.50037998 C6,5.15681373 4.65683579,6.50075997 2.99975006,6.50075997 C1.34316421,6.50075997 0,5.15681373 0,3.50037998 M0,13 C0,11.3430663 1.34316421,9.99962002 2.99975006,9.99962002 C4.65683579,9.99962002 6,11.3430663 6,13 C6,14.6564337 4.65683579,15.99988 2.99975006,15.99988 C1.34316421,15.99988 0,14.6564337 0,13 M0,22.49962 C0,20.8426863 1.34316421,19.49924 2.99975006,19.49924 C4.65683579,19.49924 6,20.8426863 6,22.49962 C6,24.1560538 4.65683579,25.5 2.99975006,25.5 C1.34316421,25.5 0,24.1560538 0,22.49962" id="Fill-1" fill="#000000" mask="url(#mask-2)"></path>
            </g>
        </g>
    </g>
</svg>