<?xml version="1.0" encoding="UTF-8"?>
<svg width="60px" height="60px" viewBox="0 0 60 60" version="1.1" xmlns="http://www.w3.org/2000/svg" xmlns:xlink="http://www.w3.org/1999/xlink">
    <title>noun_User_2885528</title>
    <g id="Page-1" stroke="none" stroke-width="1" fill="none" fill-rule="evenodd">
        <g id="Ipad---Home" transform="translate(-305.000000, -294.000000)" fill="#000000" fill-rule="nonzero">
            <g id="noun_User_2885528" transform="translate(305.000000, 294.000000)">
                <path d="M30,52.2963867 C30.4145508,52.2963867 30.75,52.6318359 30.75,53.0463867 L30.75,53.0463867 L30.75,59.25 C30.75,59.6645508 30.4145508,60 30,60 C29.5854492,60 29.25,59.6645508 29.25,59.25 L29.25,59.25 L29.25,53.0463867 C29.25,52.6318359 29.5854492,52.2963867 30,52.2963867 Z M17.8271485,49.5842286 C18.0344238,49.2246095 18.4936523,49.102295 18.8518067,49.3095704 C19.2106934,49.5168457 19.3337402,49.9753419 19.1264648,50.3342286 L19.1264648,50.3342286 L16.0246582,55.706543 C15.885498,55.9475098 15.6335449,56.081543 15.3742676,56.081543 C15.2468262,56.081543 15.11792,56.0493164 15,55.9812012 C14.6411133,55.7739258 14.5180664,55.3154296 14.7253418,54.956543 L14.7253418,54.956543 Z M41.1481934,49.3095703 C41.5056152,49.1022949 41.9655761,49.2246094 42.1728515,49.5842285 L42.1728515,49.5842285 L45.2746582,54.9565429 C45.4819336,55.3154296 45.3588867,55.7739257 45,55.9812011 C44.8820801,56.0493163 44.7531739,56.0815429 44.6257325,56.0815429 C44.3664551,56.0815429 44.114502,55.9475098 43.9753418,55.7065429 L43.9753418,55.7065429 L40.8735352,50.3342285 C40.6662598,49.9753418 40.7893067,49.5168457 41.1481934,49.3095703 Z M33.4943848,25.0356445 C36.1311035,25.0356445 38.2756348,27.1801758 38.2756348,29.8168945 L38.2756348,29.8168945 L38.2756348,35.3986816 C38.2756348,36.8386231 37.2824707,38.0515137 35.9450684,38.3869629 L35.9450684,38.3869629 L35.9450684,45.8862304 C35.9450684,46.3007812 35.6096192,46.6362304 35.1950684,46.6362304 L35.1950684,46.6362304 L24.8049317,46.6362304 C24.3903809,46.6362304 24.0549317,46.3007812 24.0549317,45.8862304 L24.0549317,45.8862304 L24.0549317,38.3869629 C22.7175293,38.0515137 21.7243652,36.8386231 21.7243652,35.3986816 L21.7243652,35.3986816 L21.7243652,29.8168945 C21.7243652,27.1801758 23.8688965,25.0356445 26.5056152,25.0356445 L26.5056152,25.0356445 Z M9.66577148,40.8735352 C10.0231934,40.6662598 10.4824219,40.7885742 10.6904296,41.1481933 C10.897705,41.50708 10.7746581,41.9655761 10.4157714,42.1728515 L10.4157714,42.1728515 L5.04345698,45.2746582 C4.9255371,45.3427734 4.79663085,45.375 4.66918943,45.375 C4.4099121,45.375 4.15795898,45.2409668 4.0187988,45 C3.8115234,44.6411133 3.93457035,44.1826171 4.29345705,43.9753418 L4.29345705,43.9753418 Z M49.3095704,41.1481933 C49.5175782,40.7885743 49.9753419,40.6662598 50.3342286,40.8735352 L50.3342286,40.8735352 L55.706543,43.9753418 C56.0654297,44.1826171 56.1884766,44.6411133 55.9812012,45 C55.842041,45.2409668 55.5900879,45.375 55.3308106,45.375 C55.2033692,45.375 55.0744629,45.3427734 54.956543,45.2746582 L54.956543,45.2746582 L49.5842285,42.1728516 C49.2253418,41.9655762 49.102295,41.50708 49.3095704,41.1481933 Z M6.9536133,29.25 C7.3681641,29.25 7.7036133,29.5854492 7.7036133,30 C7.7036133,30.4145508 7.3681641,30.75 6.9536133,30.75 L6.9536133,30.75 L0.75,30.75 C0.3354492,30.75 1.42552636e-13,30.4145508 1.42552636e-13,30 C1.42552636e-13,29.5854492 0.3354492,29.25 0.75,29.25 L0.75,29.25 Z M59.25,29.25 C59.6645508,29.25 60,29.5854492 60,30 C60,30.4145508 59.6645508,30.75 59.25,30.75 L59.25,30.75 L53.0463867,30.75 C52.6318359,30.75 52.2963867,30.4145508 52.2963867,30 C52.2963867,29.5854492 52.6318359,29.25 53.0463867,29.25 L53.0463867,29.25 Z M30,13.3894043 C32.6923829,13.3894043 34.8823242,15.5793457 34.8823242,18.2717285 C34.8823242,20.9641114 32.6923828,23.1547852 30,23.1547852 C27.3076172,23.1547852 25.1176758,20.9641114 25.1176758,18.2717285 C25.1176758,15.5793457 27.3076172,13.3894043 30,13.3894043 Z M4.0187988,15 C4.2260742,14.6403808 4.68530273,14.5187988 5.04345705,14.7253417 L5.04345705,14.7253417 L10.4157715,17.8271484 C10.7746582,18.0344238 10.8977051,18.4929199 10.6904296,18.8518066 C10.5512694,19.0927735 10.2993163,19.2268066 10.040039,19.2268066 C9.9125976,19.2268066 9.78369135,19.19458 9.6657714,19.1264648 L9.6657714,19.1264648 L4.29345698,16.0246582 C3.93457028,15.8173828 3.8115234,15.3588867 4.0187988,15 Z M54.956543,14.7253418 C55.3139649,14.5187988 55.7731933,14.6403808 55.9812012,15 C56.1884766,15.3588867 56.0654296,15.8173828 55.7065429,16.0246582 L55.7065429,16.0246582 L50.3342284,19.1264648 C50.2163086,19.19458 50.0874023,19.2268066 49.9599609,19.2268066 C49.7006836,19.2268066 49.4487304,19.0927734 49.3095704,18.8518066 C49.102295,18.4929199 49.2253419,18.0344239 49.5842286,17.8271485 L49.5842286,17.8271485 Z M15,4.0187988 C15.3574219,3.8115234 15.8166504,3.9338379 16.0246581,4.29345705 L16.0246581,4.29345705 L19.1264647,9.66577148 C19.3337401,10.0246582 19.2106933,10.4831543 18.8518066,10.6904297 C18.7338867,10.7585449 18.6049804,10.7907715 18.477539,10.7907715 C18.2182617,10.7907715 17.9663086,10.6567383 17.8271484,10.4157715 L17.8271484,10.4157715 L14.7253418,5.04345698 C14.5180664,4.68457028 14.6411133,4.2260742 15,4.0187988 Z M43.9753418,4.29345698 C44.1826172,3.9338379 44.6418457,3.8115234 45,4.0187988 C45.3588867,4.2260742 45.4819336,4.68457035 45.2746582,5.04345705 L45.2746582,5.04345705 L42.1728515,10.4157715 C42.0336914,10.6567383 41.7817382,10.7907715 41.5224609,10.7907715 C41.3950196,10.7907715 41.2661133,10.7585449 41.1481934,10.6904297 C40.7893067,10.4831543 40.6662598,10.0246582 40.8735352,9.6657714 L40.8735352,9.6657714 Z M30,-8.48210391e-14 C30.4145508,-8.48210391e-14 30.75,0.3354492 30.75,0.75 L30.75,0.75 L30.75,6.9536133 C30.75,7.3681641 30.4145508,7.7036133 30,7.7036133 C29.5854492,7.7036133 29.25,7.3681641 29.25,6.9536133 L29.25,6.9536133 L29.25,0.75 C29.25,0.3354492 29.5854492,-8.48210391e-14 30,-8.48210391e-14 Z" id="Combined-Shape"></path>
            </g>
        </g>
    </g>
</svg>