<?xml version="1.0" encoding="UTF-8"?>
<svg width="16px" height="13px" viewBox="0 0 16 13" version="1.1" xmlns="http://www.w3.org/2000/svg" xmlns:xlink="http://www.w3.org/1999/xlink">
    <title>Fill 1</title>
    <g id="Page-1" stroke="none" stroke-width="1" fill="none" fill-rule="evenodd">
        <g id="iPad---Estimate-Level-4" transform="translate(-328.000000, -756.000000)" fill="#99979B">
            <path d="M327.999975,758.24995 L327.999975,757.74995 L327.999975,756.74995 C327.999975,756.3357 328.335725,755.99995 328.749975,755.99995 L329.749975,755.99995 L330.249975,755.99995 L330.999975,755.99995 L332.499975,755.99995 L333.995475,757.49995 L343.249975,757.49995 C343.664225,757.49995 343.999975,757.8357 343.999975,758.24995 L343.999975,758.99995 L327.999975,758.99995 L327.999975,758.24995 Z M343.249975,768.49995 L328.749975,768.49995 C328.335725,768.49995 327.999975,768.1642 327.999975,767.74995 L327.999975,766.74995 L327.999975,765.49995 L327.999975,764.49995 L327.999975,763.24995 L327.999975,762.24995 L327.999975,759.74995 L343.999975,759.74995 L343.999975,762.24995 L343.999975,763.24995 L343.999975,764.49995 L343.999975,765.49995 L343.999975,766.74995 L343.999975,767.74995 C343.999975,768.1642 343.664225,768.49995 343.249975,768.49995 L343.249975,768.49995 Z" id="Fill-1"></path>
        </g>
    </g>
</svg>