<?xml version="1.0" encoding="UTF-8"?>
<svg width="60px" height="60px" viewBox="0 0 60 60" version="1.1" xmlns="http://www.w3.org/2000/svg" xmlns:xlink="http://www.w3.org/1999/xlink">
    <title>noun_measure_1240249</title>
    <g id="Page-1" stroke="none" stroke-width="1" fill="none" fill-rule="evenodd">
        <g id="Ipad---Home" transform="translate(-90.000000, -294.000000)" fill="#000000" fill-rule="nonzero">
            <g id="noun_measure_1240249" transform="translate(90.000000, 294.000000)">
                <path d="M55.5407407,0.651851852 C57.6422222,0.651851852 59.3518519,2.11333333 59.3503713,3.90888889 L59.3503713,3.90888889 L59.3503713,47.8881481 C59.3503713,48.0044444 59.322963,48.1192593 59.2703704,48.2237037 L59.2703704,48.2237037 L53.7592593,59.0725926 C53.7288889,59.1333333 53.6888889,59.1903704 53.642963,59.24 C53.2488889,59.6666667 52.6637037,59.9111111 52.0362963,59.9111111 L52.0362963,59.9111111 L51.8496696,59.90384 C51.294363,59.8604 50.7842963,59.624 50.4296296,59.24 C50.382963,59.1888889 50.3444444,59.1333333 50.3133333,59.0725926 L50.3133333,59.0725926 L44.8022222,48.2237037 C44.7496296,48.1192593 44.7222222,48.0044444 44.7222222,47.8881481 L44.7222222,47.8881481 L44.7222222,3.90888889 C44.7222222,2.11333333 46.4318519,0.651851852 48.5333333,0.651851852 L48.5333333,0.651851852 Z M38.7066667,0.651851852 C40.4066667,0.651851852 41.7903704,2.03481481 41.7903704,3.73481481 L41.7903704,3.73481481 L41.7903704,56.8281481 C41.7903704,58.5281481 40.4074074,59.9111111 38.7074074,59.9111111 L38.7074074,59.9111111 L3.1762963,59.9111111 C1.47555556,59.9111111 0.0925925926,58.5281481 0.0925925926,56.8281481 L0.0925925926,56.8281481 L0.0925925926,3.73481481 C0.0925925926,2.03481481 1.4762963,0.651851852 3.1762963,0.651851852 L3.1762963,0.651851852 Z M53.68,55.96 L50.3948148,55.96 L51.577037,58.2874074 C51.6925926,58.377037 51.8585185,58.4288889 52.037037,58.4288889 L52.037037,58.4288889 L52.1426963,58.4227793 C52.2806519,58.406637 52.4053333,58.3591111 52.4977778,58.2874074 L52.4977778,58.2874074 L53.68,55.96 Z M38.7074074,2.13333333 L3.1762963,2.13333333 C2.29259259,2.13333333 1.57407407,2.85185185 1.57407407,3.73481481 L1.57407407,3.73481481 L1.57407407,56.8281481 C1.57407407,57.7111111 2.29333333,58.4296296 3.1762963,58.4296296 L3.1762963,58.4296296 L38.7074074,58.4296296 C39.5903704,58.4296296 40.3088889,57.7111111 40.3088889,56.8281481 L40.3088889,56.8281481 L40.3088889,3.73481481 C40.3088889,2.85185185 39.5903704,2.13333333 38.7074074,2.13333333 L38.7074074,2.13333333 Z M12.9792593,46.1837037 C13.3888889,46.1837037 13.72,46.5148148 13.72,46.9244444 L13.72,46.9244444 L13.72,54.1325926 C13.72,54.5422222 13.3881481,54.8733333 12.9792593,54.8733333 L12.9792593,54.8733333 L5.73111111,54.8733333 C5.32222222,54.8733333 4.99037037,54.5422222 4.99037037,54.1325926 L4.99037037,54.1325926 L4.99037037,46.9244444 C4.99037037,46.5148148 5.32222222,46.1837037 5.73111111,46.1837037 L5.73111111,46.1837037 Z M24.5651852,46.1837037 C24.9740741,46.1837037 25.3059259,46.5148148 25.3059259,46.9244444 L25.3059259,46.9244444 L25.3059259,54.1325926 C25.3059259,54.5422222 24.9740741,54.8733333 24.5651852,54.8733333 L24.5651852,54.8733333 L17.317037,54.8733333 C16.9081481,54.8733333 16.5762963,54.5422222 16.5762963,54.1325926 L16.5762963,54.1325926 L16.5762963,46.9244444 C16.5762963,46.5148148 16.9081481,46.1837037 17.317037,46.1837037 L17.317037,46.1837037 Z M36.1511111,46.1837037 C36.56,46.1837037 36.8918519,46.5148148 36.8918519,46.9244444 L36.8918519,46.9244444 L36.8918519,54.1325926 C36.8918519,54.5422222 36.56,54.8733333 36.1511111,54.8733333 L36.1511111,54.8733333 L28.902963,54.8733333 C28.4940741,54.8733333 28.1622222,54.5422222 28.1622222,54.1325926 L28.1622222,54.1325926 L28.1622222,46.9244444 C28.1622222,46.5148148 28.4940741,46.1837037 28.902963,46.1837037 L28.902963,46.1837037 Z M53.7577778,11.3 L50.3155556,11.3 L50.3155556,46.8244444 L53.7577778,46.8244444 L53.7577778,11.3 Z M48.8340741,11.3 L46.2037037,11.3 L46.2037037,46.8244444 L48.8340741,46.8244444 L48.8340741,11.3 Z M57.8703704,11.3 L55.2392593,11.3 L55.2392593,46.8244444 L57.8703704,46.8244444 L57.8703704,11.3 Z M12.9792593,34.8251852 C13.3888889,34.8251852 13.72,35.1562963 13.72,35.5659259 L13.72,35.5659259 L13.72,42.7748148 C13.72,43.1844444 13.3881481,43.5155556 12.9792593,43.5155556 L12.9792593,43.5155556 L5.73111111,43.5155556 C5.32222222,43.5155556 4.99037037,43.1844444 4.99037037,42.7748148 L4.99037037,42.7748148 L4.99037037,35.5659259 C4.99037037,35.1562963 5.32222222,34.8251852 5.73111111,34.8251852 L5.73111111,34.8251852 Z M24.5651852,34.8251852 C24.9740741,34.8251852 25.3059259,35.1562963 25.3059259,35.5659259 L25.3059259,35.5659259 L25.3059259,42.7748148 C25.3059259,43.1844444 24.9740741,43.5155556 24.5651852,43.5155556 L24.5651852,43.5155556 L17.317037,43.5155556 C16.9081481,43.5155556 16.5762963,43.1844444 16.5762963,42.7748148 L16.5762963,42.7748148 L16.5762963,35.5659259 C16.5762963,35.1562963 16.9081481,34.8251852 17.317037,34.8251852 L17.317037,34.8251852 Z M36.1511111,34.8251852 C36.56,34.8251852 36.8918519,35.1562963 36.8918519,35.5659259 L36.8918519,35.5659259 L36.8918519,42.7748148 C36.8918519,43.1844444 36.56,43.5155556 36.1511111,43.5155556 L36.1511111,43.5155556 L28.902963,43.5155556 C28.4940741,43.5155556 28.1622222,43.1844444 28.1622222,42.7748148 L28.1622222,42.7748148 L28.1622222,35.5659259 C28.1622222,35.1562963 28.4940741,34.8251852 28.902963,34.8251852 L28.902963,34.8251852 Z M12.9792593,23.4674074 C13.3888889,23.4674074 13.72,23.7985185 13.72,24.2081481 L13.72,24.2081481 L13.72,31.417037 C13.72,31.8266667 13.3881481,32.1577778 12.9792593,32.1577778 L12.9792593,32.1577778 L5.73111111,32.1577778 C5.32222222,32.1577778 4.99037037,31.8266667 4.99037037,31.417037 L4.99037037,31.417037 L4.99037037,24.2081481 C4.99037037,23.7985185 5.32222222,23.4674074 5.73111111,23.4674074 L5.73111111,23.4674074 Z M24.5651852,23.4674074 C24.9740741,23.4674074 25.3059259,23.7985185 25.3059259,24.2081481 L25.3059259,24.2081481 L25.3059259,31.417037 C25.3059259,31.8266667 24.9740741,32.1577778 24.5651852,32.1577778 L24.5651852,32.1577778 L17.317037,32.1577778 C16.9081481,32.1577778 16.5762963,31.8266667 16.5762963,31.417037 L16.5762963,31.417037 L16.5762963,24.2081481 C16.5762963,23.7985185 16.9081481,23.4674074 17.317037,23.4674074 L17.317037,23.4674074 Z M36.1511111,23.4674074 C36.56,23.4674074 36.8918519,23.7985185 36.8918519,24.2081481 L36.8918519,24.2081481 L36.8918519,31.417037 C36.8918519,31.8266667 36.56,32.1577778 36.1511111,32.1577778 L36.1511111,32.1577778 L28.902963,32.1577778 C28.4940741,32.1577778 28.1622222,31.8266667 28.1622222,31.417037 L28.1622222,31.417037 L28.1622222,24.2081481 C28.1622222,23.7985185 28.4940741,23.4674074 28.902963,23.4674074 L28.902963,23.4674074 Z M35.3340741,5.47259259 C36.1925926,5.47259259 36.8918519,6.17111111 36.8918519,7.02962963 L36.8918519,7.02962963 L36.8918519,18.6755556 C36.8918519,19.5348148 36.1925926,20.2333333 35.3340741,20.2333333 L35.3340741,20.2333333 L6.54814815,20.2333333 C5.68888889,20.2333333 4.99037037,19.5340741 4.99037037,18.6755556 L4.99037037,18.6755556 L4.99037037,7.03037037 C4.99037037,6.17111111 5.68962963,5.47259259 6.54814815,5.47259259 L6.54814815,5.47259259 Z M55.5407407,2.13333333 L48.5333333,2.13333333 C47.2488889,2.13333333 46.2037037,2.92962963 46.2037037,3.90888889 L46.2037037,3.90888889 L46.2037037,6.54666667 L57.8703704,6.54666667 L57.8703704,3.90888889 C57.8703704,2.92962963 56.8251852,2.13333333 55.5407407,2.13333333 L55.5407407,2.13333333 Z" id="Combined-Shape"></path>
            </g>
        </g>
    </g>
</svg>