<?xml version="1.0" encoding="UTF-8"?>
<svg width="82px" height="82px" viewBox="0 0 82 82" version="1.1" xmlns="http://www.w3.org/2000/svg" xmlns:xlink="http://www.w3.org/1999/xlink">
    <title>Combined Shape</title>
    <g id="Page-1" stroke="none" stroke-width="1" fill="none" fill-rule="evenodd">
        <g id="Discount-Manager" transform="translate(-620.000000, -221.000000)" fill="#000000" fill-rule="nonzero" stroke="#000000" stroke-width="0.25">
            <path d="M677.599609,222 C680.553711,222 682.957031,224.40332 682.957031,227.357422 L682.957031,227.357422 L682.957031,296.654297 C682.957031,299.608398 680.553711,302.011719 677.599609,302.011719 L677.599609,302.011719 L644.398438,302.011719 C641.444824,302.011719 639.041504,299.608399 639.041504,296.654297 L639.041504,296.654297 L639.041504,227.357422 C639.041504,224.40332 641.444824,222 644.398438,222 L644.398438,222 Z M680.957031,287.615234 L641.041504,287.615234 L641.041504,296.654297 C641.041504,298.505859 642.547363,300.011719 644.398438,300.011719 L644.398438,300.011719 L677.599609,300.011719 C679.450684,300.011719 680.957031,298.505859 680.957031,296.654297 L680.957031,296.654297 L680.957031,287.615234 Z M660.999023,289.869141 C663.269043,289.869141 665.115723,291.71582 665.115723,293.986328 C665.115723,296.256836 663.269043,298.103516 660.999023,298.103516 C658.729004,298.103516 656.882324,296.256836 656.882324,293.986328 C656.882324,291.71582 658.729004,289.869141 660.999023,289.869141 Z M660.999023,291.869141 C659.832031,291.869141 658.882324,292.819336 658.882324,293.986328 C658.882324,295.15332 659.832031,296.103516 660.999023,296.103516 C662.166016,296.103516 663.115723,295.15332 663.115723,293.986328 C663.115723,292.819336 662.166016,291.869141 660.999023,291.869141 Z M680.957031,233.086914 L641.041504,233.086914 L641.041504,285.615234 L680.957031,285.615234 L680.957031,233.086914 Z M634.038574,275.431641 C634.516113,275.154297 635.12793,275.318359 635.404785,275.797852 C635.680664,276.276367 635.51709,276.887695 635.038574,277.164062 L635.038574,277.164062 L625.800781,282.498047 C625.643555,282.588867 625.471191,282.631836 625.301758,282.631836 C624.956055,282.631836 624.620117,282.453125 624.43457,282.131836 C624.158691,281.65332 624.322266,281.041992 624.800781,280.765625 L624.800781,280.765625 Z M686.74707,275.535156 C687.023437,275.057617 687.632812,274.891602 688.113281,275.168945 L688.113281,275.168945 L697.351074,280.501953 C697.829101,280.77832 697.993164,281.389648 697.717285,281.868164 C697.531738,282.188477 697.195801,282.368164 696.850098,282.368164 C696.680664,282.368164 696.508789,282.325195 696.351074,282.234375 L696.351074,282.234375 L687.113281,276.901367 C686.635254,276.625 686.471191,276.013672 686.74707,275.535156 Z M666.363281,245.37207 C666.915527,245.37207 667.363281,245.819336 667.363281,246.37207 L667.363281,246.37207 L667.363281,253.588867 L674.580078,253.588867 C675.132324,253.588867 675.580078,254.036133 675.580078,254.588867 L675.580078,254.588867 L675.580078,265.317383 C675.580078,265.870117 675.132324,266.317383 674.580078,266.317383 L674.580078,266.317383 L667.363281,266.317383 L667.363281,273.53418 C667.363281,274.086914 666.915527,274.53418 666.363281,274.53418 L666.363281,274.53418 L655.635254,274.53418 C655.083008,274.53418 654.635254,274.086914 654.635254,273.53418 L654.635254,273.53418 L654.635254,266.317383 L647.417969,266.317383 C646.865723,266.317383 646.417969,265.870117 646.417969,265.317383 L646.417969,265.317383 L646.417969,254.588867 C646.417969,254.036133 646.865723,253.588867 647.417969,253.588867 L647.417969,253.588867 L654.635254,253.588867 L654.635254,246.37207 C654.635254,245.819336 655.083008,245.37207 655.635254,245.37207 L655.635254,245.37207 Z M665.363281,247.37207 L656.635254,247.37207 L656.635254,254.588867 C656.635254,255.141602 656.1875,255.588867 655.635254,255.588867 L655.635254,255.588867 L648.417969,255.588867 L648.417969,264.317383 L655.635254,264.317383 C656.1875,264.317383 656.635254,264.764648 656.635254,265.317383 L656.635254,265.317383 L656.635254,272.53418 L665.363281,272.53418 L665.363281,265.317383 C665.363281,264.764648 665.811035,264.317383 666.363281,264.317383 L666.363281,264.317383 L673.580078,264.317383 L673.580078,255.588867 L666.363281,255.588867 C665.811035,255.588867 665.363281,255.141602 665.363281,254.588867 L665.363281,254.588867 L665.363281,247.37207 Z M632.666504,261.151367 C633.21875,261.151367 633.666504,261.598633 633.666504,262.151367 C633.666504,262.704102 633.21875,263.151367 632.666504,263.151367 L632.666504,263.151367 L622,263.151367 C621.447754,263.151367 621,262.704102 621,262.151367 C621,261.598633 621.447754,261.151367 622,261.151367 L622,261.151367 Z M700,260.848633 C700.552246,260.848633 701,261.295898 701,261.848633 C701,262.401367 700.552246,262.848633 700,262.848633 L700,262.848633 L689.333496,262.848633 C688.78125,262.848633 688.333496,262.401367 688.333496,261.848633 C688.333496,261.295898 688.78125,260.848633 689.333496,260.848633 L689.333496,260.848633 Z M624.282715,242.131836 C624.558594,241.654297 625.169434,241.489258 625.648926,241.765625 L625.648926,241.765625 L634.886719,247.098633 C635.364746,247.375 635.528809,247.986328 635.25293,248.464844 C635.067383,248.785156 634.731445,248.964844 634.385742,248.964844 C634.216309,248.964844 634.044434,248.921875 633.886719,248.831055 L633.886719,248.831055 L624.648926,243.498047 C624.170899,243.22168 624.006836,242.610352 624.282715,242.131836 Z M696.199219,241.501953 C696.676758,241.225586 697.289063,241.388672 697.56543,241.868164 C697.841309,242.34668 697.677734,242.958008 697.199219,243.234375 L697.199219,243.234375 L687.961426,248.568359 C687.804199,248.65918 687.631836,248.702149 687.462402,248.702149 C687.116699,248.702149 686.780762,248.523438 686.595215,248.202149 C686.319336,247.723633 686.48291,247.112305 686.961426,246.835938 L686.961426,246.835938 Z M677.599609,224 L644.398438,224 C642.547363,224 641.041504,225.505859 641.041504,227.357422 L641.041504,227.357422 L641.041504,231.086914 L680.957031,231.086914 L680.957031,227.357422 C680.957031,225.505859 679.450684,224 677.599609,224 L677.599609,224 Z" id="Combined-Shape"></path>
        </g>
    </g>
</svg>