<?xml version="1.0" encoding="UTF-8"?>
<svg width="14px" height="14px" viewBox="0 0 14 14" version="1.1" xmlns="http://www.w3.org/2000/svg" xmlns:xlink="http://www.w3.org/1999/xlink">
    <title>Group 3</title>
    <defs>
        <polygon id="path-1" points="2.18750001e-05 7.79820652e-13 14 7.79820652e-13 14 13.9999563 2.18750001e-05 13.9999563"></polygon>
    </defs>
    <g id="Page-1" stroke="none" stroke-width="1" fill="none" fill-rule="evenodd">
        <g id="Ipad---Customer-List" transform="translate(-1132.000000, -518.000000)">
            <g id="Group-11" transform="translate(789.000000, 213.000000)">
                <g id="Group-3" transform="translate(343.000000, 305.000000)">
                    <mask id="mask-2" fill="white">
                        <use xlink:href="#path-1"></use>
                    </mask>
                    <g id="Clip-2"></g>
                    <path d="M9.84375,7.65625 L7.65625,7.65625 L7.65625,9.84375 C7.65625,10.2062188 7.36246875,10.5 7,10.5 C6.63753125,10.5 6.34375,10.2062188 6.34375,9.84375 L6.34375,7.65625 L4.15625,7.65625 C3.79378125,7.65625 3.5,7.36246875 3.5,7 C3.5,6.63775 3.79378125,6.34375 4.15625,6.34375 L6.34375,6.34375 L6.34375,4.15625 C6.34375,3.794 6.63753125,3.5 7,3.5 C7.36246875,3.5 7.65625,3.794 7.65625,4.15625 L7.65625,6.34375 L9.84375,6.34375 C10.2062187,6.34375 10.5,6.63775 10.5,7 C10.5,7.36246875 10.2062187,7.65625 9.84375,7.65625 M7,0 C3.13403125,0 0,3.13403125 0,7 C0,10.8659688 3.13403125,14 7,14 C10.8659688,14 14,10.8659688 14,7 C14,3.13403125 10.8659688,0 7,0" id="Fill-1" fill="#000000" mask="url(#mask-2)"></path>
                </g>
            </g>
        </g>
    </g>
</svg>