<?xml version="1.0" encoding="UTF-8"?>
<svg width="30px" height="30px" viewBox="0 0 30 30" version="1.1" xmlns="http://www.w3.org/2000/svg" xmlns:xlink="http://www.w3.org/1999/xlink">
    <title>noun_renovating_1219894</title>
    <g id="Page-1" stroke="none" stroke-width="1" fill="none" fill-rule="evenodd">
        <g id="Ipad---Home" transform="translate(-806.000000, -663.000000)" fill="#000000" fill-rule="nonzero">
            <g id="Group-4" transform="translate(790.000000, 647.000000)">
                <g id="noun_renovating_1219894" transform="translate(16.000000, 16.000000)">
                    <path d="M16.7396296,12.8285185 C16.8714815,12.9607407 17.0496296,13.0340741 17.2407407,13.0344444 L17.2411111,13.0344444 C17.4411111,13.0344444 17.6381481,12.9514815 17.7781481,12.7844444 L18.5103704,13.5340741 L17.2788889,14.7655556 C17.1496296,14.7181481 16.9996296,14.7425926 16.8940741,14.8440741 L15.8074074,15.8937037 L13.8392593,13.9833333 C14.4181481,12.4859259 14.0648148,10.7618519 12.9211111,9.61777778 C11.4455556,8.14222222 9.1062963,8.01259259 7.48,9.31592593 C7.39777778,9.38185185 7.34777778,9.47925926 7.34185185,9.58481481 C7.33592593,9.68962963 7.37518519,9.79259259 7.44962963,9.86703704 L9.79925926,12.2166667 L9.30333333,12.7125926 L7.63814815,11.0474074 C7.56407407,10.972963 7.45444444,10.9333333 7.35592593,10.9396296 C7.25074074,10.9455556 7.15296296,10.9955556 7.08703704,11.0777778 C6.20925926,12.1737037 6.29814815,13.6162963 7.2862963,14.7292593 L7.14037037,14.8751852 C6.99555556,15.02 6.99555556,15.2540741 7.14037037,15.3988889 C8.28407407,16.5425926 10.0077778,16.8962963 11.5059259,16.317037 L13.3755556,18.2433333 L7.37666667,24.0374074 C6.99,24.4107407 6.77444444,24.9122222 6.76962963,25.4496296 C6.76481481,25.987037 6.97185185,26.4922222 7.35185185,26.8725926 C7.72777778,27.2485185 8.22592593,27.4548148 8.75703704,27.4548148 C8.76296296,27.4548148 8.76888889,27.4548148 8.77481481,27.4548148 C9.31222222,27.45 9.81407407,27.2344444 10.1874074,26.8477778 L15.9437037,20.8877778 L21.6785185,26.7962963 C22.0288889,27.1607407 22.5007407,27.3640741 23.0062963,27.3688889 C23.0125926,27.3688889 23.0185185,27.3692593 23.0248148,27.3692593 C23.5237037,27.3692593 23.9914815,27.1755556 24.3444444,26.8218519 C24.7022222,26.4644444 24.8962963,25.9892593 24.891569,25.4837037 C24.8866667,24.9781481 24.6833333,24.5062963 24.32,24.157037 L18.3677778,18.3792593 L19.3803704,17.3311111 C19.487037,17.2207407 19.5107407,17.0614815 19.4540741,16.9285185 L20.8618519,15.5207407 C21.0907407,15.3725926 21.3033333,15.3407407 21.5281481,15.4207407 C22.5737037,15.792963 23.5025926,18.2448148 23.7722222,19.1581481 C23.8174074,19.3114815 23.9559259,19.4181481 24.1159259,19.4233333 C24.12,19.4237037 24.1237037,19.4237037 24.1274074,19.4237037 C24.2825926,19.4237037 24.4218519,19.3266667 24.4751852,19.1803704 C25.7288889,15.7466667 23.0618519,13.0255556 22.9474074,12.9111111 L21.5507407,11.5140741 C21.2692593,11.2333333 20.8022222,11.2437037 20.5118519,11.5333333 C20.5107407,11.5344444 20.5007407,11.5714815 20.4996296,11.5722222 L19.7540741,10.8355556 C19.9048148,10.6914815 19.9925926,10.4925926 19.9948148,10.2888889 C19.997037,10.0948148 19.9240741,9.9137037 19.7892593,9.77962963 L18.2848148,8.27518519 C18.14,8.13037037 17.9059259,8.13037037 17.7611111,8.27518519 L15.2355556,10.8007407 C15.0907407,10.9455556 15.0907407,11.1796296 15.2355556,11.3244444 L16.7396296,12.8285185 Z M7.43555556,11.8918519 L8.77925926,13.2355556 L7.8137037,14.2011111 C7.19518519,13.4822222 7.05555556,12.6262963 7.43555556,11.8918519 Z M9.65481481,26.3340741 C9.42037037,26.5762963 9.10592593,26.7118519 8.76814815,26.7144444 C8.42185185,26.707037 8.1137037,26.5874074 7.87555556,26.3492593 C7.63740741,26.1111111 7.50740741,25.7937037 7.51032082,25.4566667 C7.51333333,25.1192593 7.64851852,24.8044444 7.89074074,24.5703704 L13.8918519,18.7740741 L15.4277778,20.3562963 L9.65481481,26.3340741 Z M24.1508098,25.4907407 C24.1540741,25.7955556 24.0366667,26.0825926 23.8207407,26.2981481 C23.6077778,26.5111111 23.3251852,26.6285185 23.0248148,26.6285185 C23.0207407,26.6285185 23.017037,26.6285185 23.0137037,26.6281481 C22.7085185,26.6251852 22.4240741,26.5025926 22.2114815,26.2814815 L11.8607407,15.6185185 C11.7896296,15.5451852 11.692963,15.5059259 11.5948148,15.5059259 C11.5418519,15.5059259 11.4888889,15.517037 11.4388889,15.5403704 C10.2818519,16.0766667 8.92037037,15.9033333 7.94074074,15.1218519 L10.5848148,12.4777778 C10.7296296,12.332963 10.7296296,12.0988889 10.5848148,11.9540741 L8.28407407,9.65333333 C9.58703704,8.85148148 11.2892593,9.03333333 12.3974074,10.1411111 C13.3851852,11.1292593 13.6525926,12.6462963 13.062963,13.9159259 C12.9966667,14.0588889 13.0277778,14.2277778 13.1411111,14.3377778 L23.8051852,24.6892593 C24.0251852,24.9011111 24.1477778,25.1855556 24.1508098,25.4907407 Z M17.8362963,17.862963 L16.3392593,16.41 L17.147037,15.63 L18.5948148,17.0777778 L17.8362963,17.862963 Z M18.0214815,9.06259259 L19.2425926,10.2992593 C19.0992593,10.4359259 19.0192593,10.6211111 19.0174074,10.8203704 C19.0148148,11.0192593 19.092963,11.212963 19.2311111,11.3511111 L19.9759259,12.0959259 C20.257037,12.3766667 20.7248148,12.367037 21.0151852,12.077037 C21.0162963,12.0759259 21.0262963,12.0388889 21.0274074,12.0381481 L22.4237037,13.4348148 C22.4448148,13.4562963 24.2425926,15.3 24.0462963,17.717037 C23.5907407,16.5981481 22.8048148,15.0896296 21.7774074,14.7233333 C21.3203704,14.56 20.85,14.6307407 20.4174074,14.9274074 C20.3985185,14.94 20.3807407,14.9548148 20.3644444,14.9711111 L18.95,16.3855556 L17.8285185,15.2640741 L19.0340741,14.0585185 C19.1788889,13.9140741 19.2618519,13.7166667 19.2618519,13.5166667 C19.2622222,13.3255556 19.1892593,13.1477778 19.0566667,13.0151852 L18.3022222,12.2607407 C18.0214815,11.98 17.5537037,11.99 17.2640741,12.3051852 L16.0218519,11.062963 L18.0214815,9.06259259 Z" id="Shape"></path>
                    <path d="M24.6822222,8.71740741 L24.6822222,0.732962963 C24.6822222,0.528148148 24.5166667,0.362592593 24.3118519,0.362592593 L20.0525926,0.362592593 C19.8477778,0.362592593 19.6822222,0.528148148 19.6822222,0.732962963 L19.6822222,4.35851852 L15.202963,0.453703704 C15.0633333,0.332222222 14.8555556,0.332222222 14.7162963,0.453703704 L0.271851852,13.0462963 C0.117777778,13.1807407 0.101481481,13.4148148 0.235925926,13.5688889 C0.370740741,13.722963 0.604814815,13.7385185 0.758518519,13.6048148 L1.81555556,12.682963 L1.81555556,29.6222222 C1.81555556,29.827037 1.98111111,29.9925926 2.18592593,29.9925926 L27.732963,29.9925926 C27.9377778,29.9925926 28.1033333,29.827037 28.1033333,29.6222222 L28.1033333,12.682963 L29.1603704,13.6048148 C29.2303704,13.6659259 29.3174074,13.6959259 29.4037037,13.6959259 C29.5066667,13.6959259 29.6096296,13.652963 29.682963,13.5688889 C29.8174074,13.4148148 29.8011111,13.1807407 29.647037,13.0462963 L24.6822222,8.71740741 Z M20.422963,1.10333333 L23.9414815,1.10333333 L23.9414815,8.07185185 L20.422963,5.00444444 L20.422963,1.10333333 Z M27.3625926,29.2518519 L2.5562963,29.2518519 L2.5562963,12.037037 L14.9592593,1.22407407 L27.3625926,12.037037 L27.3625926,29.2518519 Z" id="Shape"></path>
                </g>
            </g>
        </g>
    </g>
</svg>