<?xml version="1.0" encoding="UTF-8"?>
<svg width="31px" height="31px" viewBox="0 0 31 31" version="1.1" xmlns="http://www.w3.org/2000/svg" xmlns:xlink="http://www.w3.org/1999/xlink">
    <title>noun_medical emergency_2033620</title>
    <g id="Page-1" stroke="none" stroke-width="1" fill="none" fill-rule="evenodd">
        <g id="Ipad---Estimate---Discount-Picker" transform="translate(-805.000000, -275.000000)" fill="#000000" fill-rule="nonzero" stroke="#000000" stroke-width="0.25">
            <g id="noun_medical-emergency_2033620" transform="translate(806.000000, 276.000000)">
                <path d="M20.9628183,1.3500312e-13 C22.05693,1.3500312e-13 22.9470486,0.89011863 22.9470486,1.98423033 L22.9470486,1.98423033 L22.9470486,27.6497396 C22.9470486,28.7438513 22.05693,29.6339699 20.9628183,29.6339699 L20.9628183,29.6339699 L8.66608796,29.6339699 C7.57215711,29.6339699 6.68203848,28.7438513 6.68203848,27.6497396 L6.68203848,27.6497396 L6.68203848,1.98423033 C6.68203848,0.89011863 7.57215711,1.3500312e-13 8.66608796,1.3500312e-13 L8.66608796,1.3500312e-13 Z M22.2063079,24.3019387 L7.42277922,24.3019387 L7.42277922,27.6497396 C7.42277922,28.3355035 7.98050493,28.8932292 8.66608796,28.8932292 L8.66608796,28.8932292 L20.9628183,28.8932292 C21.6484013,28.8932292 22.2063079,28.3355035 22.2063079,27.6497396 L22.2063079,27.6497396 L22.2063079,24.3019387 Z M14.8144531,25.1367187 C15.6552011,25.1367187 16.3391565,25.8206742 16.3391565,26.661603 C16.3391565,27.5025318 15.6552011,28.1864873 14.8144531,28.1864873 C13.9737051,28.1864873 13.2897497,27.5025318 13.2897497,26.661603 C13.2897497,25.8206742 13.9737051,25.1367187 14.8144531,25.1367187 Z M14.8144531,25.8774595 C14.3822338,25.8774595 14.0304904,26.2293837 14.0304904,26.661603 C14.0304904,27.0938223 14.3822338,27.4457465 14.8144531,27.4457465 C15.2466724,27.4457465 15.5984158,27.0938223 15.5984158,26.661603 C15.5984158,26.2293837 15.2466724,25.8774595 14.8144531,25.8774595 Z M22.2063079,4.10626448 L7.42277922,4.10626448 L7.42277922,23.5611979 L22.2063079,23.5611979 L22.2063079,4.10626448 Z M4.82910156,19.7894965 C5.00596785,19.6867766 5.23256652,19.7475405 5.33510559,19.9251302 C5.43728296,20.1023582 5.37669993,20.328776 5.19947193,20.4311342 L5.19947193,20.4311342 L1.77806711,22.406684 C1.71983507,22.4403211 1.65599681,22.4562355 1.59324363,22.4562355 C1.46520544,22.4562355 1.34078415,22.3900463 1.27206307,22.2710503 C1.1698857,22.0938223 1.23046874,21.8674045 1.40769674,21.7650463 L1.40769674,21.7650463 Z M24.3507668,19.8278356 C24.453125,19.6509693 24.6788194,19.5894821 24.8567708,19.692202 L24.8567708,19.692202 L28.2781756,21.66739 C28.4552228,21.7697482 28.5159867,21.9961661 28.4138093,22.1733941 C28.3450882,22.2920283 28.2206669,22.3585793 28.0926287,22.3585793 C28.0298756,22.3585793 27.9662181,22.3426649 27.9078053,22.3090277 L27.9078053,22.3090277 L24.4864004,20.3338397 C24.3093533,20.2314815 24.2485894,20.0050636 24.3507668,19.8278356 Z M16.8012153,8.65632233 C17.0057509,8.65632233 17.1715856,8.82197626 17.1715856,9.0266927 L17.1715856,9.0266927 L17.1715856,11.6995804 L19.8444734,11.6995804 C20.049009,11.6995804 20.2148437,11.8652344 20.2148437,12.0699508 L20.2148437,12.0699508 L20.2148437,16.0434751 C20.2148437,16.2481916 20.049009,16.4138455 19.8444734,16.4138455 L19.8444734,16.4138455 L17.1715856,16.4138455 L17.1715856,19.0867332 C17.1715856,19.2914497 17.0057509,19.4571036 16.8012153,19.4571036 L16.8012153,19.4571036 L12.8278718,19.4571036 C12.6233362,19.4571036 12.4575014,19.2914497 12.4575014,19.0867332 L12.4575014,19.0867332 L12.4575014,16.4138455 L9.78443285,16.4138455 C9.57989726,16.4138455 9.41406248,16.2481916 9.41406248,16.0434751 L9.41406248,16.0434751 L9.41406248,12.0699508 C9.41406248,11.8652344 9.57989726,11.6995804 9.78443285,11.6995804 L9.78443285,11.6995804 L12.4575014,11.6995804 L12.4575014,9.0266927 C12.4575014,8.82197626 12.6233362,8.65632233 12.8278718,8.65632233 L12.8278718,8.65632233 Z M16.4308449,9.39706307 L13.1982422,9.39706307 L13.1982422,12.0699508 C13.1982422,12.2746673 13.0324074,12.4403212 12.8278718,12.4403212 L12.8278718,12.4403212 L10.1548032,12.4403212 L10.1548032,15.6731047 L12.8278718,15.6731047 C13.0324074,15.6731047 13.1982422,15.8387587 13.1982422,16.0434751 L13.1982422,16.0434751 L13.1982422,18.7163629 L16.4308449,18.7163629 L16.4308449,16.0434751 C16.4308449,15.8387587 16.5966797,15.6731047 16.8012153,15.6731047 L16.8012153,15.6731047 L19.474103,15.6731047 L19.474103,12.4403212 L16.8012153,12.4403212 C16.5966797,12.4403212 16.4308449,12.2746673 16.4308449,12.0699508 L16.4308449,12.0699508 L16.4308449,9.39706307 Z M4.32092737,14.5005064 C4.52546296,14.5005064 4.69129774,14.6661603 4.69129774,14.8708767 C4.69129774,15.0755932 4.52546296,15.2412471 4.32092737,15.2412471 L4.32092737,15.2412471 L0.37037037,15.2412471 C0.165834778,15.2412471 2.51798582e-13,15.0755932 2.51798582e-13,14.8708767 C2.51798582e-13,14.6661603 0.165834778,14.5005064 0.37037037,14.5005064 L0.37037037,14.5005064 Z M29.2592593,14.3883825 C29.4637949,14.3883825 29.6296296,14.5540364 29.6296296,14.7587529 C29.6296296,14.9634693 29.4637949,15.1291233 29.2592593,15.1291233 L29.2592593,15.1291233 L25.3087023,15.1291233 C25.1041667,15.1291233 24.9383319,14.9634693 24.9383319,14.7587529 C24.9383319,14.5540364 25.1041667,14.3883825 25.3087023,14.3883825 L25.3087023,14.3883825 Z M1.21582033,7.45623556 C1.3179977,7.27936926 1.54423467,7.21824367 1.72182437,7.32060189 L1.72182437,7.32060189 L5.14322919,9.29578996 C5.32027633,9.39814815 5.38104022,9.624566 5.27886285,9.801794 C5.21014178,9.92042822 5.08572048,9.98697919 4.9576823,9.98697919 C4.89492911,9.98697919 4.8312717,9.97106481 4.77285881,9.93742767 L4.77285881,9.93742767 L1.351454,7.96223959 C1.17440685,7.85988141 1.11364296,7.63346356 1.21582033,7.45623556 Z M27.8515625,7.22294563 C28.0284288,7.12058741 28.2552083,7.18098959 28.3575666,7.3585793 C28.4597439,7.5358073 28.3991609,7.76222511 28.2219329,7.86458333 L28.2219329,7.86458333 L24.8005281,9.84013311 C24.742296,9.87377026 24.6784578,9.88968463 24.6157046,9.88968463 C24.4876664,9.88968463 24.3632451,9.82349541 24.294524,9.70449944 C24.1923467,9.52727144 24.2529297,9.30085363 24.4301577,9.19849541 L24.4301577,9.19849541 Z M20.9628183,0.740740741 L8.66608796,0.740740741 C7.98050493,0.740740741 7.42277922,1.29846644 7.42277922,1.98423033 L7.42277922,1.98423033 L7.42277922,3.36552374 L22.2063079,3.36552374 L22.2063079,1.98423033 C22.2063079,1.29846644 21.6484013,0.740740741 20.9628183,0.740740741 L20.9628183,0.740740741 Z" id="Combined-Shape"></path>
            </g>
        </g>
    </g>
</svg>