<?xml version="1.0" encoding="UTF-8"?>
<svg width="24px" height="24px" viewBox="0 0 24 24" version="1.1" xmlns="http://www.w3.org/2000/svg" xmlns:xlink="http://www.w3.org/1999/xlink">
    <title>noun_Search_3402229 Copy</title>
    <g id="Page-1" stroke="none" stroke-width="1" fill="none" fill-rule="evenodd">
        <g id="Ipad---Customer-List" transform="translate(-475.000000, -144.000000)" fill="#000000" fill-rule="nonzero">
            <g id="noun_Search_3402229-Copy" transform="translate(475.000000, 144.000000)">
                <path d="M23.4,20.664 L18.7786667,16.0426667 C21.7442312,11.6664929 20.8966084,5.75297375 16.8211732,2.38603183 C12.7457379,-0.980910085 6.77850555,-0.697518844 3.04049335,3.04049335 C-0.697518844,6.77850555 -0.980910085,12.7457379 2.38603183,16.8211732 C5.75297375,20.8966084 11.6664929,21.7442312 16.0426667,18.7786667 L20.664,23.4 C21.4195255,24.1555255 22.6444745,24.1555255 23.4,23.4 C24.1555255,22.6444745 24.1555255,21.4195255 23.4,20.664 L23.4,20.664 Z M10.288,17.1306672 C7.51883607,17.1317452 5.0217922,15.4643287 3.96158076,12.9061611 C2.90136932,10.3479934 3.48685749,7.40304698 5.44495223,5.44495223 C7.40304698,3.48685749 10.3479934,2.90136932 12.9061611,3.96158076 C15.4643287,5.0217922 17.1317452,7.51883607 17.1306672,10.288 C17.1306672,14.0671004 14.0671004,17.1306672 10.288,17.1306672 Z" id="Shape"></path>
            </g>
        </g>
    </g>
</svg>