<?xml version="1.0" encoding="UTF-8"?>
<svg width="22px" height="22px" viewBox="0 0 22 22" version="1.1" xmlns="http://www.w3.org/2000/svg" xmlns:xlink="http://www.w3.org/1999/xlink">
    <title>Group 14</title>
    <defs>
        <polygon id="path-1" points="0 -3.79310345e-05 21.9999621 -3.79310345e-05 21.9999621 21.9999241 0 21.9999241"></polygon>
    </defs>
    <g id="Page-1" stroke="none" stroke-width="1" fill="none" fill-rule="evenodd">
        <g id="Ipad---Estimate-Level-3" transform="translate(-70.000000, -520.000000)">
            <g id="Group-3" transform="translate(70.000000, 520.000000)">
                <mask id="mask-2" fill="white">
                    <use xlink:href="#path-1"></use>
                </mask>
                <g id="Clip-2"></g>
                <path d="M8.7241,9.8619931 C8.41685862,9.8619931 8.13920345,9.73909655 7.93399655,9.54071724 L7.93285862,9.54223448 L2.27582414,3.8852 L2.27582414,5.68957931 C2.27582414,6.31809655 1.76641034,6.82751034 1.1378931,6.82751034 C0.509375862,6.82751034 -3.79310345e-05,6.31809655 -3.79310345e-05,5.68957931 L-3.79310345e-05,1.13785517 C-3.79310345e-05,0.509337931 0.509375862,-7.5862069e-05 1.1378931,-7.5862069e-05 L5.68961724,-7.5862069e-05 C6.31813448,-7.5862069e-05 6.82754828,0.509337931 6.82754828,1.13785517 C6.82754828,1.76637241 6.31813448,2.27578621 5.68961724,2.27578621 L3.88523793,2.27578621 L9.54227241,7.93282069 L9.54075517,7.93433793 C9.73913448,8.13878621 9.86203103,8.41644138 9.86203103,8.72406207 C9.86203103,9.35257931 9.35261724,9.8619931 8.7241,9.8619931 L8.7241,9.8619931 Z M9.54227241,14.0670276 L3.88523793,19.7240621 L5.68961724,19.7240621 C6.31813448,19.7240621 6.82754828,20.2334759 6.82754828,20.8619931 C6.82754828,21.4905103 6.31813448,21.9999241 5.68961724,21.9999241 L1.1378931,21.9999241 C0.509375862,21.9999241 -3.79310345e-05,21.4905103 -3.79310345e-05,20.8619931 L-3.79310345e-05,16.310269 C-3.79310345e-05,15.682131 0.509375862,15.1723379 1.1378931,15.1723379 C1.76641034,15.1723379 2.27582414,15.682131 2.27582414,16.310269 L2.27582414,18.1150276 L7.93285862,12.4579931 L7.93399655,12.459131 C8.13920345,12.261131 8.41685862,12.1378552 8.7241,12.1378552 C9.35261724,12.1378552 9.86203103,12.6476483 9.86203103,13.2757862 C9.86203103,13.5834069 9.73913448,13.8610621 9.54075517,14.0658897 L9.54227241,14.0670276 Z M20.862031,6.82751034 C20.2335138,6.82751034 19.7241,6.31809655 19.7241,5.68957931 L19.7241,3.8852 L14.0670655,9.54223448 L14.0659276,9.54071724 C13.8611,9.73909655 13.5834448,9.8619931 13.2758241,9.8619931 C12.6473069,9.8619931 12.1378931,9.35257931 12.1378931,8.72406207 C12.1378931,8.41644138 12.261169,8.13878621 12.459169,7.93433793 L12.4576517,7.93282069 L18.1146862,2.27578621 L16.3103069,2.27578621 C15.6817897,2.27578621 15.1723759,1.76637241 15.1723759,1.13785517 C15.1723759,0.509337931 15.6817897,-7.5862069e-05 16.3103069,-7.5862069e-05 L20.862031,-7.5862069e-05 C21.4905483,-7.5862069e-05 21.9999621,0.509337931 21.9999621,1.13785517 L21.9999621,5.68957931 C21.9999621,6.31809655 21.4905483,6.82751034 20.862031,6.82751034 L20.862031,6.82751034 Z M20.862031,21.9999241 L16.3103069,21.9999241 C15.6817897,21.9999241 15.1723759,21.4905103 15.1723759,20.8619931 C15.1723759,20.2334759 15.6817897,19.7240621 16.3103069,19.7240621 L18.1146862,19.7240621 L12.4576517,14.0670276 L12.459169,14.0658897 C12.261169,13.8610621 12.1378931,13.5834069 12.1378931,13.2757862 C12.1378931,12.6476483 12.6473069,12.1378552 13.2758241,12.1378552 C13.5834448,12.1378552 13.8611,12.261131 14.0659276,12.459131 L14.0670655,12.4579931 L19.7241,18.1150276 L19.7241,16.310269 C19.7241,15.682131 20.2335138,15.1723379 20.862031,15.1723379 C21.4905483,15.1723379 21.9999621,15.682131 21.9999621,16.310269 L21.9999621,20.8619931 C21.9999621,21.4905103 21.4905483,21.9999241 20.862031,21.9999241 L20.862031,21.9999241 Z" id="Fill-1" fill="#1C0000" mask="url(#mask-2)"></path>
            </g>
        </g>
    </g>
</svg>