<?xml version="1.0" encoding="UTF-8"?>
<svg width="22px" height="22px" viewBox="0 0 22 22" version="1.1" xmlns="http://www.w3.org/2000/svg" xmlns:xlink="http://www.w3.org/1999/xlink">
    <title>Fill 3</title>
    <g id="Page-1" stroke="none" stroke-width="1" fill="none" fill-rule="evenodd">
        <g id="Ipad---Estimate-Level-3" transform="translate(-70.000000, -607.000000)" fill="#1C0000">
            <g id="Fill-2" transform="translate(70.000000, 606.999894)">
                <path d="M2.12903226,3.22619355 L2.12903226,19.5487742 L18.4516129,19.5487742 L18.4516129,7.77274194 L20.5806452,5.64370968 L20.5806452,20.6132903 C20.5806452,21.2012581 20.1040968,21.6778065 19.516129,21.6778065 L1.06451613,21.6778065 C0.476548387,21.6778065 -1.24344979e-14,21.2012581 -1.24344979e-14,20.6132903 L-1.24344979e-14,2.16167742 C-1.24344979e-14,1.57406452 0.476548387,1.09716129 1.06451613,1.09716129 L16.0944194,1.09716129 L13.9653871,3.22619355 L2.12903226,3.22619355 Z M18.3529677,6.292 L9.36206452,15.2648065 L6.36509677,12.273871 L15.3556452,3.30070968 L18.3529677,6.292 Z M5.61,13.0211613 L8.60732258,16.0124516 L4.61219355,17.008129 L5.61,13.0211613 Z M21.3495806,3.30070968 L19.1020323,5.544 L16.1050645,2.55306452 L18.3529677,0.309774194 C18.7667097,-0.103258065 19.4373548,-0.103258065 19.8510968,0.309774194 L21.3495806,1.80541935 C21.7636774,2.21809677 21.7636774,2.88803226 21.3495806,3.30070968 L21.3495806,3.30070968 Z" id="Fill-1"></path>
            </g>
        </g>
    </g>
</svg>