<?xml version="1.0" encoding="UTF-8"?>
<svg width="16px" height="22px" viewBox="0 0 16 22" version="1.1" xmlns="http://www.w3.org/2000/svg" xmlns:xlink="http://www.w3.org/1999/xlink">
    <title>Group 15</title>
    <defs>
        <polygon id="path-1" points="0 -3.63636364e-05 15.9999636 -3.63636364e-05 15.9999636 21.1039273 0 21.1039273"></polygon>
    </defs>
    <g id="Page-1" stroke="none" stroke-width="1" fill="none" fill-rule="evenodd">
        <g id="Ipad---Estimate-Level-3" transform="translate(-73.000000, -694.000000)">
            <g id="Group-3" transform="translate(73.000000, 694.000000)">
                <mask id="mask-2" fill="white">
                    <use xlink:href="#path-1"></use>
                </mask>
                <g id="Clip-2"></g>
                <path d="M9.09087273,7.28869091 C8.48832727,7.28869091 7.99996364,6.79923636 7.99996364,6.19523636 L7.99996364,4.00869091 L7.99996364,-3.63636364e-05 L15.9999636,7.28869091 L11.2726909,7.28869091 L9.09087273,7.28869091 Z M14.9090545,21.1039636 L1.09087273,21.1039636 C0.488327273,21.1039636 -3.63636364e-05,20.6156 -3.63636364e-05,20.0130545 L-3.63636364e-05,1.10396364 C-3.63636364e-05,0.501418182 0.488327273,0.0130545455 1.09087273,0.0130545455 L6.90905455,0.0130545455 L6.90905455,4.00869091 L6.90905455,6.19523636 C6.90905455,7.40287273 7.88614545,8.38178182 9.09087273,8.38178182 L11.2726909,8.38178182 L15.9999636,8.38178182 L15.9999636,17.1039636 L15.9999636,20.0130545 C15.9999636,20.6156 15.5116,21.1039636 14.9090545,21.1039636 L14.9090545,21.1039636 Z" id="Fill-1" fill="#8D1D1C" mask="url(#mask-2)"></path>
            </g>
        </g>
    </g>
</svg>