<?xml version="1.0" encoding="UTF-8"?>
<svg width="16px" height="12px" viewBox="0 0 16 12" version="1.1" xmlns="http://www.w3.org/2000/svg" xmlns:xlink="http://www.w3.org/1999/xlink">
    <title>Fill 1</title>
    <g id="Page-1" stroke="none" stroke-width="1" fill="none" fill-rule="evenodd">
        <g id="Ipad---Products" transform="translate(-1085.000000, -501.000000)" fill="#262027">
            <path d="M1100.54684,503.643613 L1092.28877,511.901677 C1092.00852,512.181935 1091.62142,512.354839 1091.19355,512.354839 C1090.76619,512.354839 1090.3791,512.181935 1090.09884,511.901677 L1085.45368,507.256516 C1085.17342,506.976258 1085,506.589161 1085,506.16129 C1085,505.306581 1085.69368,504.612903 1086.54839,504.612903 C1086.97626,504.612903 1087.36335,504.786323 1087.64361,505.066581 L1091.19355,508.617032 L1098.3569,501.453677 C1098.63716,501.173419 1099.02426,501 1099.45161,501 C1100.30684,501 1101,501.693677 1101,502.548387 C1101,502.976258 1100.82658,503.363355 1100.54684,503.643613" id="Fill-1"></path>
        </g>
    </g>
</svg>