<?xml version="1.0" encoding="UTF-8"?>
<svg width="14px" height="10px" viewBox="0 0 14 10" version="1.1" xmlns="http://www.w3.org/2000/svg" xmlns:xlink="http://www.w3.org/1999/xlink">
    <title>Fill 1</title>
    <g id="Page-1" stroke="none" stroke-width="1" fill="none" fill-rule="evenodd">
        <g id="Ipad---Users" transform="translate(-791.000000, -545.000000)" fill="#FFFFFF">
            <path d="M804.603484,547.313161 L797.377677,554.538968 C797.132452,554.784194 796.793742,554.935484 796.419355,554.935484 C796.045419,554.935484 795.70671,554.784194 795.461484,554.538968 L791.396968,550.474452 C791.151742,550.229226 791,549.890516 791,549.516129 C791,548.768258 791.606968,548.16129 792.354839,548.16129 C792.729226,548.16129 793.067935,548.313032 793.313161,548.558258 L796.419355,551.664903 L802.68729,545.396968 C802.932516,545.151742 803.271226,545 803.645161,545 C804.393484,545 805,545.606968 805,546.354839 C805,546.729226 804.848258,547.067935 804.603484,547.313161" id="Fill-1"></path>
        </g>
    </g>
</svg>