<?xml version="1.0" encoding="UTF-8"?>
<svg width="32px" height="19px" viewBox="0 0 32 19" version="1.1" xmlns="http://www.w3.org/2000/svg" xmlns:xlink="http://www.w3.org/1999/xlink">
    <title>noun_User_2828478</title>
    <g id="Page-1" stroke="none" stroke-width="1" fill="none" fill-rule="evenodd">
        <g id="Ipad---Home" transform="translate(-434.000000, -668.000000)" fill="#000000" fill-rule="nonzero" stroke="#000000" stroke-width="0.25">
            <g id="noun_User_2828478" transform="translate(435.000000, 668.000000)">
                <path d="M16.9284667,6.67382812 C18.3614502,6.67382812 19.5274658,7.83984375 19.5274658,9.27319335 L19.5274658,9.27319335 L19.5274658,12.3535767 C19.5274658,13.1403808 18.977417,13.8013916 18.2416992,13.9718628 L18.2416992,13.9718628 L18.2416992,18.1404419 C18.2416992,18.3475342 18.0739746,18.5154419 17.8666992,18.5154419 L17.8666992,18.5154419 L12.1333008,18.5154419 C11.9260254,18.5154419 11.7583008,18.3475342 11.7583008,18.1404419 L11.7583008,18.1404419 L11.7583008,13.9718628 C11.022583,13.8013916 10.4725342,13.1403808 10.4725342,12.3535767 L10.4725342,12.3535767 L10.4725342,9.27319335 C10.4725342,7.83984375 11.6385498,6.67382812 13.0715332,6.67382812 L13.0715332,6.67382812 Z M16.9284668,7.42382812 L13.0715332,7.42382812 C12.052002,7.42382812 11.2225342,8.25347899 11.2225342,9.27319335 L11.2225342,9.27319335 L11.2225342,12.3535767 C11.2225342,12.8558349 11.6312256,13.2645264 12.1333008,13.2645264 C12.3405762,13.2645264 12.5083008,13.4324341 12.5083008,13.6395264 L12.5083008,13.6395264 L12.5083008,17.7654419 L17.4916992,17.7654419 L17.4916992,13.6395264 C17.4916992,13.4324341 17.6594238,13.2645264 17.8666992,13.2645264 C18.3687744,13.2645264 18.7774658,12.855835 18.7774658,12.3535767 L18.7774658,12.3535767 L18.7774658,9.27319335 C18.7774658,8.25347899 17.947998,7.42382812 16.9284668,7.42382812 L16.9284668,7.42382812 Z M25.5882568,15.0439453 C25.682373,14.8599243 25.9094238,14.7868653 26.0928955,14.8815308 L26.0928955,14.8815308 L28.6153564,16.1757202 C28.7999268,16.2702027 28.8724365,16.4963379 28.7779541,16.680542 C28.7116699,16.8099976 28.5802002,16.8843384 28.4439697,16.8843384 C28.3864746,16.8843384 28.3278809,16.8711548 28.2733154,16.8429565 L28.2733154,16.8429565 L25.7508545,15.5487671 C25.5662842,15.4542847 25.4937744,15.2281494 25.5882568,15.0439453 Z M3.90710453,14.8815307 C4.0905762,14.7863159 4.31726078,14.8595581 4.41174319,15.0439453 C4.5062256,15.2281494 4.43371583,15.4542846 4.24914551,15.548767 L4.24914551,15.548767 L1.72668458,16.8429565 C1.67211915,16.8711548 1.6135254,16.8843384 1.55603029,16.8843384 C1.41979984,16.8843384 1.28833009,16.8099975 1.22204591,16.680542 C1.12756346,16.4963379 1.20007324,16.2702026 1.38464359,16.1757202 L1.38464359,16.1757202 Z M29.625,9 C29.8322754,9 30,9.16790771 30,9.375 C30,9.58209229 29.8322754,9.75 29.625,9.75 L29.625,9.75 L26.7901611,9.75 C26.5828857,9.75 26.4151611,9.58209229 26.4151611,9.375 C26.4151611,9.16790771 26.5828857,9 26.7901611,9 L26.7901611,9 Z M3.20983886,9 C3.41711426,9 3.58483886,9.16790771 3.58483886,9.375 C3.58483886,9.58209229 3.41711426,9.75 3.20983886,9.75 L3.20983886,9.75 L0.375,9.75 C0.1677246,9.75 -3.5971226e-14,9.58209229 -3.5971226e-14,9.375 C-3.5971226e-14,9.16790771 0.1677246,9 0.375,9 L0.375,9 Z M15,0.247558575 C16.4641113,0.247558575 17.6553955,1.43884275 17.6553955,2.90295409 C17.6553955,4.36706543 16.4641113,5.55816649 15,5.55816649 C13.5358887,5.55816649 12.3446045,4.36706543 12.3446045,2.90295409 C12.3446045,1.43884275 13.5358887,0.247558575 15,0.247558575 Z M15,0.997558575 C13.9493408,0.997558575 13.0946045,1.85229491 13.0946045,2.90295409 C13.0946045,3.95343015 13.9493408,4.80816649 15,4.80816649 C16.0506592,4.80816649 16.9053955,3.95343015 16.9053955,2.90295409 C16.9053955,1.85229491 16.0506592,0.997558575 15,0.997558575 Z M28.2733155,1.90704341 C28.4567871,1.81164548 28.6834717,1.88525389 28.7779541,2.06945798 C28.8724365,2.25366206 28.7999268,2.47979734 28.6153565,2.57427975 L28.6153565,2.57427975 L26.0928955,3.86846921 C26.0383301,3.89666749 25.9797363,3.90985106 25.9222412,3.90985106 C25.7860107,3.90985106 25.654541,3.83551024 25.5882569,3.70605465 C25.4937744,3.52185056 25.5662842,3.29571529 25.7508545,3.20123288 L25.7508545,3.20123288 Z M1.22204587,2.06945801 C1.31616206,1.885437 1.54321286,1.81219481 1.72668454,1.90704345 L1.72668454,1.90704345 L4.24914547,3.20123291 C4.43371582,3.29571532 4.50622556,3.5218506 4.41174315,3.70605469 C4.34545897,3.83551024 4.21398926,3.9098511 4.07775877,3.9098511 C4.02026366,3.9098511 3.96166991,3.89666749 3.90710449,3.86846925 L3.90710449,3.86846925 L1.38464355,2.57427979 C1.2000732,2.47979737 1.12756346,2.2536621 1.22204587,2.06945801 Z" id="Combined-Shape"></path>
            </g>
        </g>
    </g>
</svg>