<?xml version="1.0" encoding="UTF-8"?>
<svg width="47px" height="48px" viewBox="0 0 47 48" version="1.1" xmlns="http://www.w3.org/2000/svg" xmlns:xlink="http://www.w3.org/1999/xlink">
    <title>noun_User_2348365</title>
    <g id="Page-1" stroke="none" stroke-width="1" fill="none" fill-rule="evenodd">
        <g id="Ipad---Menu" transform="translate(-1101.000000, -25.000000)" fill="#262027" fill-rule="nonzero">
            <g id="noun_User_2348365" transform="translate(1101.000000, 25.000000)">
                <g id="Group" transform="translate(0.000000, 0.880032)">
                    <path d="M23.4805075,0.247968 C11.1417176,0.247968 1.12800077,10.2614592 1.12800077,22.5999744 C1.12800077,34.9384704 11.1417176,44.9519808 23.4805075,44.9519808 C35.8192992,44.9519808 45.8319994,34.9384704 45.8319994,22.5999744 C45.8319994,10.2614592 35.8192992,0.247968 23.4805075,0.247968 Z M23.4815232,8.0462016 C27.2137147,8.0462016 30.2392589,11.0716693 30.2392589,14.803776 C30.2392589,16.5960002 29.5272898,18.3148207 28.2599682,19.5821157 C26.9926465,20.8494107 25.2737882,21.5613696 23.4815232,21.5613696 C21.6892586,21.5613696 19.9704007,20.84941 18.7030795,19.5821151 C17.4357582,18.3148201 16.7237894,16.5959999 16.7237894,14.803776 C16.7237894,11.0716701 19.7493325,8.0462016 23.4815232,8.0462016 L23.4815232,8.0462016 Z M23.4815232,25.8457728 C30.658825,25.8457728 36.477168,28.4057856 36.477168,31.5637248 C36.477168,34.721664 30.658825,38.5284096 23.4815232,38.5284096 C16.3042232,38.5284096 10.4858799,34.721664 10.4858799,31.5637248 C10.4858799,28.4057856 16.3042232,25.8457728 23.4815232,25.8457728 Z" id="Shape"></path>
                </g>
            </g>
        </g>
    </g>
</svg>