<?xml version="1.0" encoding="UTF-8"?>
<svg width="23px" height="31px" viewBox="0 0 23 31" version="1.1" xmlns="http://www.w3.org/2000/svg" xmlns:xlink="http://www.w3.org/1999/xlink">
    <title>noun_Medal_2220097</title>
    <g id="Page-1" stroke="none" stroke-width="1" fill="none" fill-rule="evenodd">
        <g id="Ipad---Estimate---Discount-Picker" transform="translate(-809.000000, -351.000000)" fill="#000000" fill-rule="nonzero" stroke="#000000" stroke-width="0.25">
            <g id="noun_Medal_2220097" transform="translate(809.000000, 352.000000)">
                <path d="M22.0323351,-2.16715534e-13 C22.2368707,-2.16715534e-13 22.4027054,0.165834778 22.4027054,0.37037037 L22.4027054,0.37037037 L22.4027054,1.30588107 C22.4027054,4.64482059 19.6864149,7.36111111 16.3474754,7.36111115 L16.3474754,7.36111115 L12.734601,7.36111115 C13.2003445,7.77002407 13.4962746,8.36794256 13.4962746,9.03501159 C13.4962746,9.70305267 13.1995081,10.3018076 12.7325666,10.7107657 C17.2894061,11.4178467 20.7884838,15.3674542 20.7884838,20.1193576 C20.7884838,25.369647 16.517108,29.6410229 11.2668186,29.6410229 C6.01652922,29.6410229 1.74515337,25.369647 1.74515337,20.1193576 C1.74515337,15.3674543 5.24423104,11.4178467 9.80107056,10.7107657 C9.334129,10.3018075 9.03736252,9.70305263 9.03736252,9.03501156 C9.03736252,8.36794252 9.33329263,7.77002404 9.79903607,7.36111111 L9.79903607,7.36111111 L6.18616174,7.36111111 C2.84722222,7.36111111 0.130931704,4.64482059 0.130931704,1.30588107 L0.130931704,1.30588107 L0.130931704,0.37037037 C0.130931704,0.165834778 0.296766481,-2.16715534e-13 0.501302074,-2.16715534e-13 L0.501302074,-2.16715534e-13 Z M11.2668186,11.3384331 C6.42505789,11.3384331 2.48589411,15.2775969 2.48589411,20.1193576 C2.48589411,24.9611183 6.42505785,28.9002821 11.2668186,28.9002821 C16.1085793,28.9002821 20.047743,24.9611183 20.047743,20.1193576 C20.047743,15.2775969 16.1085793,11.3384331 11.2668186,11.3384331 Z M11.2668186,13.8434968 C14.7272859,13.8434968 17.5424985,16.6588903 17.5424985,20.1193576 C17.5424985,23.5798249 14.7272859,26.3950376 11.2668186,26.3950376 C7.80635126,26.3950376 4.99113859,23.5798249 4.99113859,20.1193576 C4.99113859,16.6588903 7.80635126,13.8434968 11.2668186,13.8434968 Z M11.2668186,14.5842376 C8.21487993,14.5842376 5.73187933,17.0672381 5.73187933,20.1193576 C5.73187933,23.1712963 8.21487996,25.6542969 11.2668186,25.6542969 C14.3187572,25.6542969 16.8017578,23.1712963 16.8017578,20.1193576 C16.8017578,17.0672381 14.3187572,14.5842376 11.2668186,14.5842376 Z M13.9456742,20.9959129 C14.1502098,20.9959129 14.3160446,21.1617477 14.3160446,21.3662833 C14.3160446,21.5708189 14.1502098,21.7366536 13.9456742,21.7366536 L13.9456742,21.7366536 L8.58796296,21.7366536 C8.38342737,21.7366536 8.21759259,21.5708189 8.21759259,21.3662833 C8.21759259,21.1617477 8.38342737,20.9959129 8.58796296,20.9959129 L8.58796296,20.9959129 Z M13.9456742,18.5018808 C14.1502098,18.5018808 14.3160446,18.6677156 14.3160446,18.8722511 C14.3160446,19.0767867 14.1502098,19.2426215 13.9456742,19.2426215 L13.9456742,19.2426215 L8.58796296,19.2426215 C8.38342737,19.2426215 8.21759259,19.0767867 8.21759259,18.8722511 C8.21759259,18.6677156 8.38342737,18.5018808 8.58796296,18.5018808 L8.58796296,18.5018808 Z M11.2668186,7.5462963 C10.4459636,7.5462963 9.77810333,8.21415659 9.77810333,9.03501159 C9.77810333,9.85586659 10.4459636,10.5237269 11.2668186,10.5237269 C12.0876736,10.5237269 12.7555339,9.85586656 12.7555339,9.03501156 C12.7555339,8.21415656 12.0876736,7.5462963 11.2668186,7.5462963 Z M21.6619647,0.740740741 L14.9097584,0.740740741 L14.9097584,6.62037037 L16.3474754,6.62037037 C19.2778863,6.62037037 21.6619647,4.23629196 21.6619647,1.30588107 L21.6619647,1.30588107 L21.6619647,0.740740741 Z M14.1690177,0.740740741 L8.36461952,0.740740741 L8.36461952,6.62037037 L14.1690177,6.62037037 L14.1690177,0.740740741 Z M7.62387874,0.740740741 L0.871672444,0.740740741 L0.871672444,1.30588107 C0.871672444,4.23629196 3.25575085,6.62037037 6.18616174,6.62037037 L6.18616174,6.62037037 L7.62387874,6.62037037 L7.62387874,0.740740741 Z" id="Combined-Shape"></path>
            </g>
        </g>
    </g>
</svg>